<svg xmlns="http://www.w3.org/2000/svg" viewBox="0 0 165.81 165.81"><defs><style>.cls-1{fill:#ff5656;}.cls-2{fill:#fff;}</style></defs><title>alice</title><g id="레이어_2" data-name="레이어 2"><g id="레이어_2-2" data-name="레이어 2"><rect class="cls-1" width="165.81" height="165.81"/><circle class="cls-2" cx="86.8" cy="93.02" r="10.51"/><path class="cls-2" d="M86.8,72a21,21,0,1,1-21,21,21,21,0,0,1,21-21m0-9.55A30.57,30.57,0,1,0,117.36,93,30.57,30.57,0,0,0,86.8,62.45Z"/><path class="cls-2" d="M43.11,60.64a4.44,4.44,0,0,0-3.5,1.68h0a4.46,4.46,0,0,0,.73,6.25l10.49,8.31a4.39,4.39,0,0,0,2.76,1,4.45,4.45,0,0,0,2.77-7.93l-10.5-8.32a4.44,4.44,0,0,0-2.75-1Z"/><path class="cls-2" d="M74,38.12a4.56,4.56,0,0,0-.72.06,4.46,4.46,0,0,0-3.66,5.12l2.17,13.21a4.46,4.46,0,0,0,4.39,3.72,4.37,4.37,0,0,0,.72-.06,4.45,4.45,0,0,0,3.67-5.11L78.4,41.85A4.48,4.48,0,0,0,74,38.12Z"/><path class="cls-2" d="M110.84,42a4.45,4.45,0,0,0-4,2.4l-6.16,11.88a4.47,4.47,0,0,0,1.91,6,4.35,4.35,0,0,0,2,.5,4.48,4.48,0,0,0,4-2.4l6.15-11.89A4.43,4.43,0,0,0,110.84,42Z"/><polygon class="cls-2" points="117.27 90.77 109.64 90.77 109.64 123.58 117.27 123.58 117.27 90.77 117.27 90.77"/></g></g></svg>