<svg xmlns="http://www.w3.org/2000/svg" viewBox="0 0 165.81 165.81"><defs><style>.cls-1{fill:#ffb31f;}.cls-2{fill:#fff;}</style></defs><title>areum</title><g id="레이어_2" data-name="레이어 2"><g id="레이어_2-2" data-name="레이어 2"><rect class="cls-1" width="165.81" height="165.81"/><path class="cls-2" d="M105.67,52.08a32.43,32.43,0,0,0-10.24-6.9,32.39,32.39,0,0,0-25.1,0,32.12,32.12,0,0,0-10.22,6.9,32.93,32.93,0,0,0-6.88,10.25,31.44,31.44,0,0,0-2.52,12.55v44.5a3.78,3.78,0,0,0,3.78,3.78H63a3.78,3.78,0,0,0,3.78-3.78v-8.55a3.79,3.79,0,0,1,3.79-3.78H95.21A3.78,3.78,0,0,1,99,110.83v8.55a3.79,3.79,0,0,0,3.79,3.78h8.54a3.78,3.78,0,0,0,3.78-3.78V74.88a31.44,31.44,0,0,0-2.52-12.55A32.67,32.67,0,0,0,105.67,52.08ZM99,87.21A3.78,3.78,0,0,1,95.21,91H70.55a3.79,3.79,0,0,1-3.79-3.78V74.88A15.74,15.74,0,0,1,68,68.62,16,16,0,0,1,76.62,60a16.06,16.06,0,0,1,12.52,0,16,16,0,0,1,8.59,8.59A15.73,15.73,0,0,1,99,74.88Z"/></g></g></svg>