<svg xmlns="http://www.w3.org/2000/svg" viewBox="0 0 165.81 165.81"><defs><style>.cls-1{fill:#95cd94;}.cls-2{fill:#fff;}</style></defs><title>curo</title><g id="레이어_2" data-name="레이어 2"><g id="레이어_2-2" data-name="레이어 2"><rect class="cls-1" width="165.81" height="165.81"/><path class="cls-2" d="M86.05,39.85c-2,.34-7.91,1.34-12,6.53A17.39,17.39,0,0,0,70.42,56a18.3,18.3,0,0,0,.18,4.21A12.7,12.7,0,0,0,68,57.6C63.3,54.1,57.61,55,55.75,55.27a20.82,20.82,0,0,0-13,7.91c.6.49,1.51,1.23,2.63,2.12a56.75,56.75,0,0,0,5.68,4.23,13.6,13.6,0,0,0,8,1.8c4.48-.5,7.39-3.52,9-5.21a19.63,19.63,0,0,0,3.32-4.65l-.16-.26c.37,0,.86,0,1.46,0a24.24,24.24,0,0,0,3.45-.32,15.37,15.37,0,0,0,7.48-3.16c3.67-3.14,4.59-8,4.76-9.38a36.7,36.7,0,0,1,.6-3.87c.21-1,.46-2,.56-2.37.28-1.09.54-2,.73-2.58A20.63,20.63,0,0,0,86.05,39.85Z"/><path class="cls-2" d="M122.78,91a34.94,34.94,0,0,0-18.2-27.27,31.14,31.14,0,0,0-15-3.5c-.34.36-.69.71-1.07,1a14.51,14.51,0,0,1-4.84,2.68c.78,0,1.52,0,2.18.09,11.56,1.35,20.61,9,22.58,18.64,1.29,6.31,0,15.51-7.11,20.48-5.74,4-15.25,5.32-20.59,0-4-4-5.36-11.33-2.18-15.58,2.12-2.83,6.7-4.88,8.86-3.25a4.31,4.31,0,0,1,1.21,4.62c-1.32,3.47-6.63,2.45-6.86,7.14a4.72,4.72,0,0,0,.46,2.3c1.1,2.29,4.37,2.68,4.51,2.69,4.13.44,8.26-4.5,10-8.43,3.16-7.11-.08-14.06-.6-15.18a18.92,18.92,0,0,0-9.31-9.22A24.94,24.94,0,0,0,74.35,66a22,22,0,0,1-3.48,4.74c-1.79,1.86-5,5.12-9.79,5.84a34.43,34.43,0,0,0-4.29,10c-5.9,23.58,16.36,42.57,39.28,39.29,14.41-2,26.85-13.75,26.89-28.77A36,36,0,0,0,122.78,91Z"/></g></g></svg>