<svg xmlns="http://www.w3.org/2000/svg" viewBox="0 0 165.81 165.81"><defs><style>.cls-1{fill:#f3abb9;}.cls-2,.cls-5,.cls-8{fill:none;}.cls-2,.cls-5{stroke:#fff;}.cls-2,.cls-5,.cls-7,.cls-8{stroke-miterlimit:10;}.cls-2{stroke-width:5.18px;}.cls-3,.cls-4,.cls-7{fill:#fff;}.cls-3,.cls-7,.cls-8{stroke:#f2aab9;stroke-width:1.73px;}.cls-5{stroke-width:0.86px;}.cls-6{fill:#f2aab9;}.cls-8{stroke-linecap:round;}</style></defs><title>storytailor</title><g id="레이어_2" data-name="레이어 2"><g id="레이어_2-2" data-name="레이어 2"><rect class="cls-1" width="165.81" height="165.81"/><path class="cls-2" d="M123.86,132.78H42A9,9,0,0,0,33,123.86V42A9,9,0,0,0,42,33h81.91A9,9,0,0,0,132.78,42v81.91A9,9,0,0,0,123.86,132.78Z"/><path class="cls-3" d="M79.49,77S71.36,80,67.74,84.66s-7,11.8-9,16.83,5.31,1.26,6.66,2.12,2.86,6.36,4.79,5,2.35-10.8,5.42-16.57a124.83,124.83,0,0,1,6.74-11Z"/><path class="cls-3" d="M86.05,76.61S94,80.33,97.28,85.22s6.26,12.33,7.92,17.5-5.39.83-6.79,1.59-3.26,6.12-5.1,4.62S91.67,98,89,92a127.83,127.83,0,0,0-6-11.55Z"/><path class="cls-4" d="M112.37,79.65a19.55,19.55,0,0,0-.71-3.17,9.69,9.69,0,0,1-.49-2.41,6.63,6.63,0,0,1,.25-2.38c.14-.65.33-1.45.51-2.67.66-4.35,1.35-8.85-1.23-11.18-1.43-1.29-3.17-1.25-5.37-1.2-6.64.14-12.07,2.29-16.12,6.37a21,21,0,0,0-3.39,4.46l-.23.4L86,78.29l.24.36a20.61,20.61,0,0,0,3.19,3.76,24.71,24.71,0,0,0,15.86,6.26,15.68,15.68,0,0,0,1.87-.11c2.32-.3,4-1.17,4.87-2.52C113.05,84.5,112.81,82.78,112.37,79.65Z"/><path class="cls-5" d="M112.37,79.65a19.55,19.55,0,0,0-.71-3.17,9.69,9.69,0,0,1-.49-2.41,6.63,6.63,0,0,1,.25-2.38c.14-.65.33-1.45.51-2.67.66-4.35,1.35-8.85-1.23-11.18-1.43-1.29-3.17-1.25-5.37-1.2-6.64.14-12.07,2.29-16.12,6.37a21,21,0,0,0-3.39,4.46l-.23.4L86,78.29l.24.36a20.61,20.61,0,0,0,3.19,3.76,24.71,24.71,0,0,0,15.86,6.26,15.68,15.68,0,0,0,1.87-.11c2.32-.3,4-1.17,4.87-2.52C113.05,84.5,112.81,82.78,112.37,79.65Z"/><path class="cls-6" d="M106.48,56.62a5.81,5.81,0,0,1,4.22,1.22c2.58,2.33,1.89,6.83,1.23,11.18-.18,1.22-.37,2-.51,2.67a6.63,6.63,0,0,0-.25,2.38,9.69,9.69,0,0,0,.49,2.41,19.55,19.55,0,0,1,.71,3.17c.44,3.13.68,4.85-.3,6.39-.87,1.35-2.55,2.22-4.87,2.52a15.68,15.68,0,0,1-1.87.11,24.71,24.71,0,0,1-15.86-6.26,20.61,20.61,0,0,1-3.19-3.76L86,78.29l-.45-10.42.23-.4A21,21,0,0,1,89.21,63c4.05-4.08,9.48-6.23,16.12-6.37l1.15,0m0-1.73-1.17,0c-7.12.16-13,2.47-17.33,6.88a23.27,23.27,0,0,0-3.66,4.83L84.1,67l-.25.43,0,.5.45,10.42,0,.48.26.4.24.37a22.57,22.57,0,0,0,3.46,4.07,26.54,26.54,0,0,0,17,6.72,15.68,15.68,0,0,0,2.1-.13c2.84-.36,4.94-1.51,6.09-3.3,1.33-2.07,1-4.25.56-7.56a20.89,20.89,0,0,0-.77-3.42,8.5,8.5,0,0,1-.42-2,5.23,5.23,0,0,1,.21-1.88c.16-.68.35-1.52.54-2.79.7-4.58,1.48-9.77-1.78-12.72a7.43,7.43,0,0,0-5.38-1.67Z"/><path class="cls-6" d="M109,59.55c.42.9-1.06,2.39-1.68,3-1.19,1.19-2.71,2.25-6.31,3.82-2.66,1.15-5.77,2.39-7.82,2.39h-6a27.74,27.74,0,0,1,4.58-5,25.37,25.37,0,0,1,7.63-4.19,22.45,22.45,0,0,1,7.43-.77C107.76,58.85,108.69,59,109,59.55Z"/><path class="cls-4" d="M80,67.58a21.3,21.3,0,0,0-3.38-4.46c-4.06-4.08-9.48-6.23-16.13-6.37-2.2,0-3.94-.09-5.37,1.2-2.57,2.33-1.89,6.83-1.23,11.18.19,1.21.37,2,.52,2.67a6.85,6.85,0,0,1,.24,2.38,9.7,9.7,0,0,1-.48,2.41,19.38,19.38,0,0,0-.72,3.17c-.44,3.13-.68,4.85.31,6.39.86,1.35,2.54,2.22,4.86,2.52a15.68,15.68,0,0,0,1.87.11,24.71,24.71,0,0,0,15.86-6.26,20.61,20.61,0,0,0,3.19-3.76l.24-.36L80.22,68Z"/><path class="cls-5" d="M80,67.58a21.3,21.3,0,0,0-3.38-4.46c-4.06-4.08-9.48-6.23-16.13-6.37-2.2,0-3.94-.09-5.37,1.2-2.57,2.33-1.89,6.83-1.23,11.18.19,1.21.37,2,.52,2.67a6.85,6.85,0,0,1,.24,2.38,9.7,9.7,0,0,1-.48,2.41,19.38,19.38,0,0,0-.72,3.17c-.44,3.13-.68,4.85.31,6.39.86,1.35,2.54,2.22,4.86,2.52a15.68,15.68,0,0,0,1.87.11,24.71,24.71,0,0,0,15.86-6.26,20.61,20.61,0,0,0,3.19-3.76l.24-.36L80.22,68Z"/><path class="cls-6" d="M59.34,56.73l1.14,0c6.65.14,12.07,2.29,16.13,6.37A21.3,21.3,0,0,1,80,67.58l.23.4L79.77,78.4l-.24.36a20.61,20.61,0,0,1-3.19,3.76,24.71,24.71,0,0,1-15.86,6.26,15.68,15.68,0,0,1-1.87-.11c-2.32-.3-4-1.17-4.86-2.52-1-1.54-.75-3.26-.31-6.39a19.38,19.38,0,0,1,.72-3.17,9.7,9.7,0,0,0,.48-2.41,6.85,6.85,0,0,0-.24-2.38c-.15-.65-.33-1.46-.52-2.67-.66-4.35-1.34-8.85,1.23-11.18a5.8,5.8,0,0,1,4.23-1.22m0-1.73A7.47,7.47,0,0,0,54,56.67c-3.26,2.95-2.47,8.14-1.78,12.72.2,1.28.39,2.12.54,2.79a5,5,0,0,1,.21,1.88,8,8,0,0,1-.42,2,20.89,20.89,0,0,0-.77,3.42c-.46,3.31-.76,5.49.56,7.56,1.15,1.79,3.26,2.94,6.1,3.3a15.43,15.43,0,0,0,2.09.13,26.54,26.54,0,0,0,17-6.72A22.18,22.18,0,0,0,81,79.72l.24-.37.27-.4,0-.48.44-10.42,0-.5-.24-.43-.23-.39a22.6,22.6,0,0,0-3.66-4.83C73.45,57.49,67.62,55.18,60.51,55l-1.17,0Z"/><path class="cls-6" d="M56.86,59.66c-.42.9,1.06,2.39,1.69,3,1.18,1.19,2.7,2.25,6.3,3.81,2.67,1.16,5.78,2.4,7.82,2.4h6a27.74,27.74,0,0,0-4.58-5,25.25,25.25,0,0,0-7.63-4.19A22.45,22.45,0,0,0,59,58.91C58.05,59,57.12,59.08,56.86,59.66Z"/><path class="cls-7" d="M83.81,79.78a7,7,0,0,1-1.18.16c-1.23.08-3.41-.29-3.41-1.91-.58-3.5-1.75-7.58.59-10.5,1.75-1.75,5.83-1.17,7,1.17.58,2.33,0,5.25-.06,8.16C86.71,78.63,85.32,79.46,83.81,79.78Z"/><line class="cls-8" x1="69.42" y1="76.61" x2="78.63" y2="74.62"/><line class="cls-8" x1="87.18" y1="74.98" x2="94.21" y2="76.97"/></g></g></svg>