<svg xmlns="http://www.w3.org/2000/svg" xmlns:xlink="http://www.w3.org/1999/xlink" viewBox="0 0 465.81 859.11"><defs><style>.cls-1{fill:url(#무제_그라디언트_38);}.cls-2{fill:#0b1434;}.cls-3{fill:#fff8c5;}.cls-4{fill:#010308;}.cls-5{fill:url(#무제_그라디언트_17);}.cls-6{fill:url(#무제_그라디언트_17-2);}.cls-7{fill:url(#무제_그라디언트_17-3);}.cls-8{fill:url(#무제_그라디언트_17-4);}.cls-9{fill:url(#무제_그라디언트_17-5);}.cls-10{opacity:0.58;}.cls-11{fill:#7185bc;opacity:0.65;}</style><linearGradient id="무제_그라디언트_38" x1="341.04" y1="690.67" x2="-6" y2="-86.35" gradientUnits="userSpaceOnUse"><stop offset="0" stop-color="#1e2d5f"/><stop offset="0.48" stop-color="#35457d"/><stop offset="0.98" stop-color="#5667a4"/></linearGradient><linearGradient id="무제_그라디언트_17" x1="330.19" y1="439.72" x2="124.41" y2="433.16" gradientUnits="userSpaceOnUse"><stop offset="0" stop-color="#1e2d5f"/><stop offset="0.98" stop-color="#5667a4"/></linearGradient><linearGradient id="무제_그라디언트_17-2" x1="338.61" y1="183.36" x2="132.84" y2="176.81" xlink:href="#무제_그라디언트_17"/><linearGradient id="무제_그라디언트_17-3" x1="376.51" y1="18.41" x2="231.79" y2="13.8" xlink:href="#무제_그라디언트_17"/><linearGradient id="무제_그라디언트_17-4" x1="321.53" y1="684.18" x2="115.75" y2="677.63" xlink:href="#무제_그라디언트_17"/><linearGradient id="무제_그라디언트_17-5" x1="258.73" y1="733.2" x2="196.24" y2="731.21" xlink:href="#무제_그라디언트_17"/></defs><title>building</title><g id="레이어_2" data-name="레이어 2"><g id="레이어_1-2" data-name="레이어 1"><polygon class="cls-1" points="154.45 33.27 154.45 175.84 10.08 175.84 10.08 858.98 453.55 858.98 453.55 175.84 453.55 33.27 154.45 33.27"/><rect class="cls-2" y="430.08" width="465.81" height="32.08"/><rect class="cls-2" y="674.83" width="465.81" height="32.08"/><rect class="cls-3" x="183.87" y="58.99" width="85.01" height="82.39"/><rect class="cls-4" x="299.68" y="58.99" width="85.01" height="82.39"/><rect class="cls-3" x="42.19" y="229.87" width="75.55" height="73.22"/><rect class="cls-4" x="143.42" y="229.87" width="75.55" height="73.22"/><rect class="cls-4" x="244.66" y="229.87" width="75.55" height="73.22"/><rect class="cls-3" x="345.9" y="229.87" width="75.55" height="73.22"/><rect class="cls-4" x="42.19" y="320.17" width="75.55" height="73.22"/><rect class="cls-4" x="143.42" y="320.17" width="75.55" height="73.22"/><rect class="cls-3" x="244.66" y="320.17" width="75.55" height="73.22"/><rect class="cls-4" x="345.9" y="320.17" width="75.55" height="73.22"/><rect class="cls-4" x="42.19" y="481.74" width="75.55" height="73.22"/><rect class="cls-4" x="143.42" y="481.74" width="75.55" height="73.22"/><rect class="cls-4" x="244.66" y="481.74" width="75.55" height="73.22"/><rect class="cls-3" x="345.9" y="481.74" width="75.55" height="73.22"/><rect class="cls-4" x="42.19" y="572.04" width="75.55" height="73.22"/><rect class="cls-4" x="42.19" y="735.99" width="75.55" height="73.22"/><rect class="cls-4" x="346.19" y="735.99" width="75.55" height="73.22"/><rect class="cls-3" x="143.42" y="572.04" width="75.55" height="73.22"/><rect class="cls-4" x="244.66" y="572.04" width="75.55" height="73.22"/><rect class="cls-4" x="168.43" y="735.42" width="126.76" height="123.69"/><rect class="cls-4" x="345.9" y="572.04" width="75.55" height="73.22"/><rect class="cls-5" y="420.58" width="465.81" height="32.08"/><rect class="cls-2" y="173.46" width="465.81" height="32.08"/><rect class="cls-6" y="163.95" width="465.81" height="32.08"/><rect class="cls-2" x="138.52" y="9.5" width="327.29" height="32.08"/><rect class="cls-7" x="138.52" width="327.29" height="32.08"/><rect class="cls-8" y="665.32" width="465.81" height="32.08"/><rect class="cls-2" x="161.33" y="727.31" width="140.97" height="24.75"/><rect class="cls-9" x="161.33" y="719.97" width="140.97" height="24.75"/><g class="cls-10"><rect class="cls-11" x="178.71" y="21.91" width="19.6" height="19.6"/><rect class="cls-11" x="250.2" y="21.91" width="9.22" height="9.22"/><rect class="cls-11" x="58.8" y="171.8" width="14.99" height="14.99"/><rect class="cls-11" x="107.23" y="181.02" width="17.29" height="17.29"/><rect class="cls-11" x="239.82" y="181.02" width="10.38" height="10.38"/><rect class="cls-11" x="93.39" y="430.07" width="6.92" height="6.92"/><rect class="cls-11" x="148.74" y="430.07" width="16.14" height="16.14"/><rect class="cls-11" x="227.14" y="425.46" width="11.53" height="11.53"/><rect class="cls-11" x="314.77" y="433.53" width="8.07" height="8.07"/><rect class="cls-11" x="307.85" y="221.38" width="5.76" height="5.76"/><rect class="cls-11" x="374.72" y="31.13" width="5.76" height="5.76"/><rect class="cls-11" x="279.03" y="58.8" width="11.53" height="11.53"/><rect class="cls-11" x="166.03" y="153.35" width="10.38" height="10.38"/><rect class="cls-11" x="198.32" y="216.76" width="13.84" height="13.84"/><rect class="cls-11" x="31.13" y="322.84" width="13.84" height="13.84"/><rect class="cls-11" x="107.23" y="404.7" width="5.76" height="5.76"/><rect class="cls-11" x="44.97" y="469.27" width="6.92" height="6.92"/><rect class="cls-11" x="238.67" y="472.73" width="6.92" height="6.92"/><rect class="cls-11" x="138.36" y="556.9" width="8.07" height="8.07"/><rect class="cls-11" x="304.39" y="556.9" width="3.46" height="3.46"/><rect class="cls-11" x="327.45" y="647.98" width="2.31" height="2.31"/><rect class="cls-11" x="176.41" y="649.14" width="1.15" height="1.15"/><rect class="cls-11" x="360.89" y="189.09" width="4.61" height="4.61"/><rect class="cls-11" x="319.38" y="314.77" width="8.07" height="8.07"/></g></g></g></svg>