<svg xmlns="http://www.w3.org/2000/svg" xmlns:xlink="http://www.w3.org/1999/xlink" viewBox="0 0 1680.95 245.23"><defs><style>.cls-1{fill:url(#무제_그라디언트_88);}.cls-2{fill:url(#무제_그라디언트_88-2);}.cls-3{fill:url(#무제_그라디언트_88-3);}.cls-4{fill:url(#무제_그라디언트_88-4);}.cls-5{fill:url(#무제_그라디언트_88-5);}.cls-6{fill:url(#무제_그라디언트_88-6);}.cls-7{fill:url(#무제_그라디언트_88-7);}</style><linearGradient id="무제_그라디언트_88" x1="91.96" y1="238.1" x2="91.96" y2="48.48" gradientUnits="userSpaceOnUse"><stop offset="0" stop-color="#35457d" stop-opacity="0.4"/><stop offset="0.42" stop-color="#35457d" stop-opacity="0.63"/><stop offset="1" stop-color="#35457d"/></linearGradient><linearGradient id="무제_그라디언트_88-2" x1="359.29" y1="229.54" x2="359.29" y2="96.24" xlink:href="#무제_그라디언트_88"/><linearGradient id="무제_그라디언트_88-3" x1="673.66" y1="245.23" x2="673.66" y2="48.48" xlink:href="#무제_그라디언트_88"/><linearGradient id="무제_그라디언트_88-4" x1="988.75" y1="237.39" x2="988.75" y2="69.15" xlink:href="#무제_그라디언트_88"/><linearGradient id="무제_그라디언트_88-5" x1="1217.58" y1="215.29" x2="1217.58" y2="0" xlink:href="#무제_그라디언트_88"/><linearGradient id="무제_그라디언트_88-6" x1="1422.89" y1="237.39" x2="1422.89" y2="69.15" xlink:href="#무제_그라디언트_88"/><linearGradient id="무제_그라디언트_88-7" x1="1638.89" y1="229.54" x2="1638.89" y2="9.98" xlink:href="#무제_그라디언트_88"/></defs><title>city-dep2</title><g id="레이어_2" data-name="레이어 2"><g id="레이어_13" data-name="레이어 13"><g id="레이어_11" data-name="레이어 11"><polygon class="cls-1" points="91.25 93.39 0 93.39 0 238.1 116.91 238.1 116.91 215.29 183.92 215.29 183.92 48.48 91.25 48.48 91.25 93.39"/><rect class="cls-2" x="326.5" y="96.24" width="65.58" height="133.31"/><polygon class="cls-3" points="724.28 93.39 634.46 93.39 634.46 48.48 499.01 48.48 499.01 229.54 603.09 229.54 603.09 245.23 737.11 245.23 737.11 229.54 848.32 229.54 848.32 48.48 724.28 48.48 724.28 93.39"/><rect class="cls-4" x="933.15" y="69.15" width="111.21" height="168.24"/><rect class="cls-5" x="1152" width="131.17" height="215.29"/><rect class="cls-6" x="1371.56" y="69.15" width="102.65" height="168.24"/><rect class="cls-7" x="1596.83" y="9.98" width="84.12" height="219.56"/></g></g></g></svg>