<svg xmlns="http://www.w3.org/2000/svg" viewBox="0 0 1605.39 211.01"><defs><style>.cls-1{fill:#5667a4;}.cls-2{fill:#0b1434;}.cls-3{fill:#fff8c5;}</style></defs><title>city-dep1</title><g id="레이어_2" data-name="레이어 2"><g id="레이어_13" data-name="레이어 13"><g id="레이어_10" data-name="레이어 10"><rect class="cls-1" y="92.67" width="79.13" height="109.78"/><rect class="cls-1" x="105.5" width="92.67" height="202.46"/><rect class="cls-1" x="503.29" y="42.06" width="101.23" height="168.95"/><rect class="cls-1" x="647.29" y="101.23" width="101.23" height="101.23"/><rect class="cls-1" x="1087.84" y="42.06" width="89.82" height="168.24"/><rect class="cls-1" x="1372.99" y="106.93" width="75.56" height="95.52"/><rect class="cls-1" x="1495.6" y="51.33" width="109.78" height="145.43"/><rect class="cls-2" x="148.12" y="11.05" width="40.08" height="19.37"/><rect class="cls-3" x="172.87" y="55.25" width="15.33" height="17.47"/><rect class="cls-2" x="148.12" y="55.25" width="15.33" height="17.47"/><rect class="cls-2" x="123.36" y="55.25" width="15.33" height="17.47"/><rect class="cls-2" x="172.87" y="83.94" width="15.33" height="17.47"/><rect class="cls-2" x="148.12" y="83.94" width="15.33" height="17.47"/><rect class="cls-3" x="123.36" y="83.94" width="15.33" height="17.47"/><rect class="cls-2" x="172.87" y="112.63" width="15.33" height="17.47"/><rect class="cls-2" x="148.12" y="112.63" width="15.33" height="17.47"/><rect class="cls-2" x="123.36" y="112.63" width="15.33" height="17.47"/><rect class="cls-2" x="153.5" y="147.56" width="21.86" height="44.18"/><rect class="cls-3" x="52.4" y="103.72" width="16.04" height="21.15"/><rect class="cls-2" x="28" y="103.72" width="16.04" height="21.15"/><rect class="cls-2" x="52.4" y="134.97" width="16.04" height="21.15"/><rect class="cls-3" x="28" y="134.97" width="16.04" height="21.15"/><rect class="cls-2" x="52.4" y="166.22" width="16.04" height="21.15"/><rect class="cls-2" x="28" y="166.22" width="16.04" height="21.15"/><rect class="cls-2" x="513.27" y="55.6" width="19.49" height="24.24"/><rect class="cls-3" x="544.16" y="55.6" width="19.49" height="24.24"/><rect class="cls-2" x="575.05" y="55.6" width="19.49" height="24.24"/><rect class="cls-2" x="513.27" y="92.67" width="19.49" height="24.24"/><rect class="cls-2" x="544.16" y="92.67" width="19.49" height="24.24"/><rect class="cls-2" x="575.05" y="92.67" width="19.49" height="24.24"/><rect class="cls-2" x="513.27" y="129.74" width="19.49" height="24.24"/><rect class="cls-2" x="544.16" y="129.74" width="19.49" height="24.24"/><rect class="cls-3" x="575.05" y="129.74" width="19.49" height="24.24"/><rect class="cls-2" x="723.56" y="110.5" width="17.47" height="21.74"/><rect class="cls-2" x="698.91" y="110.5" width="17.47" height="21.74"/><rect class="cls-3" x="674.26" y="110.5" width="17.47" height="21.74"/><rect class="cls-2" x="723.56" y="140.97" width="17.47" height="21.74"/><rect class="cls-2" x="698.91" y="140.97" width="17.47" height="21.74"/><rect class="cls-2" x="674.26" y="140.97" width="17.47" height="21.74"/><rect class="cls-2" x="723.56" y="171.45" width="17.47" height="21.74"/><rect class="cls-2" x="698.91" y="171.45" width="17.47" height="21.74"/><rect class="cls-2" x="674.26" y="171.45" width="17.47" height="21.74"/><rect class="cls-2" x="1119.92" y="50.5" width="48.95" height="21.03"/><rect class="cls-2" x="1149.39" y="79.96" width="19.49" height="19.49"/><rect class="cls-2" x="1123.01" y="79.96" width="19.49" height="19.49"/><rect class="cls-3" x="1096.63" y="79.96" width="19.49" height="19.49"/><rect class="cls-2" x="1149.39" y="107.88" width="19.49" height="19.49"/><rect class="cls-3" x="1123.01" y="107.88" width="19.49" height="19.49"/><rect class="cls-2" x="1096.63" y="107.88" width="19.49" height="19.49"/><rect class="cls-2" x="1149.39" y="135.8" width="19.49" height="19.49"/><rect class="cls-2" x="1123.01" y="135.8" width="19.49" height="19.49"/><rect class="cls-2" x="1096.63" y="135.8" width="19.49" height="19.49"/><rect class="cls-2" x="535.37" y="162.71" width="37.07" height="33.68"/><rect class="cls-2" x="1118.02" y="163.25" width="28.99" height="30.65"/><rect class="cls-2" x="1393.96" y="116.2" width="18.77" height="18.77"/><rect class="cls-3" x="1418.79" y="116.2" width="18.77" height="18.77"/><rect class="cls-2" x="1393.96" y="141.86" width="18.77" height="18.77"/><rect class="cls-2" x="1418.79" y="141.86" width="18.77" height="18.77"/><rect class="cls-2" x="1393.96" y="167.52" width="18.77" height="18.77"/><rect class="cls-2" x="1418.79" y="167.52" width="18.77" height="18.77"/><rect class="cls-3" x="1506.3" y="96.39" width="24.42" height="24.42"/><rect class="cls-2" x="1538.33" y="96.39" width="24.42" height="24.42"/><rect class="cls-2" x="1570.37" y="96.39" width="24.42" height="24.42"/><rect class="cls-2" x="1506.3" y="131.47" width="24.42" height="24.42"/><rect class="cls-2" x="1538.33" y="131.47" width="24.42" height="24.42"/><rect class="cls-3" x="1570.37" y="131.47" width="24.42" height="24.42"/><rect class="cls-2" x="1506.3" y="166.54" width="24.42" height="24.42"/><rect class="cls-2" x="1538.33" y="166.54" width="24.42" height="24.42"/><rect class="cls-2" x="1570.37" y="166.54" width="24.42" height="24.42"/><rect class="cls-2" x="1506.3" y="62.67" width="24.42" height="24.42"/></g></g></g></svg>