<svg xmlns="http://www.w3.org/2000/svg" xmlns:xlink="http://www.w3.org/1999/xlink" viewBox="0 0 1993.19 359.29"><defs><style>.cls-1{fill:url(#무제_그라디언트_123);}.cls-2{fill:url(#무제_그라디언트_123-2);}.cls-3{fill:url(#무제_그라디언트_123-3);}.cls-4{fill:url(#무제_그라디언트_123-4);}.cls-5{fill:url(#무제_그라디언트_123-5);}.cls-6{fill:url(#무제_그라디언트_123-6);}.cls-7{fill:url(#무제_그라디언트_123-7);}.cls-8{fill:url(#무제_그라디언트_123-8);}.cls-9{fill:#0b1434;}</style><linearGradient id="무제_그라디언트_123" x1="108.9" y1="525.52" x2="114.6" y2="37.92" gradientUnits="userSpaceOnUse"><stop offset="0" stop-color="#35457d" stop-opacity="0.4"/><stop offset="0.66" stop-color="#26366a" stop-opacity="0.78"/><stop offset="1" stop-color="#1e2d5f"/></linearGradient><linearGradient id="무제_그라디언트_123-2" x1="331.57" y1="528.11" x2="337.27" y2="40.51" xlink:href="#무제_그라디언트_123"/><linearGradient id="무제_그라디언트_123-3" x1="579.11" y1="531.02" x2="584.81" y2="43.42" xlink:href="#무제_그라디언트_123"/><linearGradient id="무제_그라디언트_123-4" x1="1015.24" y1="536.12" x2="1020.94" y2="48.52" xlink:href="#무제_그라디언트_123"/><linearGradient id="무제_그라디언트_123-5" x1="1303.4" y1="539.49" x2="1309.1" y2="51.89" xlink:href="#무제_그라디언트_123"/><linearGradient id="무제_그라디언트_123-6" x1="1485.15" y1="541.62" x2="1490.85" y2="54.01" xlink:href="#무제_그라디언트_123"/><linearGradient id="무제_그라디언트_123-7" x1="1665.48" y1="543.73" x2="1671.19" y2="56.12" xlink:href="#무제_그라디언트_123"/><linearGradient id="무제_그라디언트_123-8" x1="1943.53" y1="546.98" x2="1949.24" y2="59.38" xlink:href="#무제_그라디언트_123"/></defs><title>city-dep3</title><g id="레이어_2" data-name="레이어 2"><g id="레이어_13" data-name="레이어 13"><g id="레이어_6" data-name="레이어 6"><polygon class="cls-1" points="126.89 52.75 0 52.75 0 343.6 116.91 343.6 116.91 359.29 225.27 359.29 225.27 175.37 126.89 175.37 126.89 52.75"/><rect class="cls-2" x="278.97" y="76.99" width="112.63" height="266.61"/><polygon class="cls-3" points="615.21 223.84 543.21 223.84 543.21 152.55 454.81 152.55 454.81 343.6 534.65 343.6 543.21 343.6 615.21 343.6 695.76 343.6 710.02 343.6 710.02 124.04 615.21 124.04 615.21 223.84"/><polygon class="cls-4" points="968.79 152.55 922.46 152.55 922.46 343.6 1015.13 343.6 1015.13 329.35 1114.93 329.35 1114.93 76.99 968.79 76.99 968.79 152.55"/><polygon class="cls-5" points="1263.21 171.8 1210.46 171.8 1210.46 352.16 1301.7 352.16 1301.7 343.6 1402.93 343.6 1402.93 0 1263.21 0 1263.21 171.8"/><rect class="cls-6" x="1441.43" y="162.53" width="94.1" height="189.62"/><polygon class="cls-7" points="1635.33 162.53 1565.46 162.53 1565.46 343.6 1635.33 343.6 1635.33 352.16 1772.2 352.16 1772.2 62.73 1635.33 62.73 1635.33 162.53"/><rect class="cls-8" x="1901.94" y="52.75" width="91.25" height="299.41"/><rect class="cls-9" x="287.05" y="88.87" width="21.39" height="21.39"/><rect class="cls-9" x="324.59" y="88.87" width="21.39" height="21.39"/><rect class="cls-9" x="362.14" y="88.87" width="21.39" height="21.39"/><rect class="cls-9" x="287.05" y="127.09" width="21.39" height="21.39"/><rect class="cls-9" x="324.59" y="127.09" width="21.39" height="21.39"/><rect class="cls-9" x="362.14" y="127.09" width="21.39" height="21.39"/><rect class="cls-9" x="287.05" y="165.31" width="21.39" height="21.39"/><rect class="cls-9" x="324.59" y="165.31" width="21.39" height="21.39"/><rect class="cls-9" x="362.14" y="165.31" width="21.39" height="21.39"/><rect class="cls-9" x="287.05" y="203.53" width="21.39" height="21.39"/><rect class="cls-9" x="324.59" y="203.53" width="21.39" height="21.39"/><rect class="cls-9" x="362.14" y="203.53" width="21.39" height="21.39"/><rect class="cls-9" x="287.05" y="241.75" width="21.39" height="21.39"/><rect class="cls-9" x="324.59" y="241.75" width="21.39" height="21.39"/><rect class="cls-9" x="362.14" y="241.75" width="21.39" height="21.39"/><rect class="cls-9" x="135.96" y="188.84" width="76.15" height="21.46"/><rect class="cls-9" x="193.54" y="226.3" width="18.57" height="18.57"/><rect class="cls-9" x="164.75" y="226.3" width="18.57" height="18.57"/><rect class="cls-9" x="135.96" y="226.3" width="18.57" height="18.57"/><rect class="cls-9" x="193.54" y="258.74" width="18.57" height="18.57"/><rect class="cls-9" x="164.75" y="258.74" width="18.57" height="18.57"/><rect class="cls-9" x="135.96" y="258.74" width="18.57" height="18.57"/><rect class="cls-9" x="193.54" y="291.17" width="18.57" height="18.57"/><rect class="cls-9" x="164.75" y="291.17" width="18.57" height="18.57"/><rect class="cls-9" x="135.96" y="291.17" width="18.57" height="18.57"/><rect class="cls-9" x="193.54" y="323.61" width="18.57" height="18.57"/><rect class="cls-9" x="164.75" y="323.61" width="18.57" height="18.57"/><rect class="cls-9" x="135.96" y="323.61" width="18.57" height="18.57"/><rect class="cls-9" x="680.55" y="134.02" width="18.53" height="22.34"/><rect class="cls-9" x="650.61" y="134.02" width="18.53" height="22.34"/><rect class="cls-9" x="680.55" y="166.34" width="18.53" height="22.34"/><rect class="cls-9" x="650.61" y="166.34" width="18.53" height="22.34"/><rect class="cls-9" x="680.55" y="198.65" width="18.53" height="22.34"/><rect class="cls-9" x="650.61" y="198.65" width="18.53" height="22.34"/><rect class="cls-9" x="680.55" y="230.97" width="18.53" height="22.34"/><rect class="cls-9" x="650.61" y="230.97" width="18.53" height="22.34"/><rect class="cls-9" x="464.79" y="162.06" width="69.39" height="19.01"/><rect class="cls-9" x="513.98" y="191.52" width="20.2" height="20.2"/><rect class="cls-9" x="484.4" y="191.52" width="20.2" height="20.2"/><rect class="cls-9" x="513.98" y="223.72" width="20.2" height="20.2"/><rect class="cls-9" x="484.4" y="223.72" width="20.2" height="20.2"/><rect class="cls-9" x="513.98" y="255.92" width="20.2" height="20.2"/><rect class="cls-9" x="484.4" y="255.92" width="20.2" height="20.2"/><rect class="cls-9" x="513.98" y="288.12" width="20.2" height="20.2"/><rect class="cls-9" x="484.4" y="288.12" width="20.2" height="20.2"/><rect class="cls-9" x="987.09" y="163.96" width="19.49" height="28.04"/><rect class="cls-9" x="958.69" y="163.96" width="19.49" height="28.04"/><rect class="cls-9" x="930.3" y="163.96" width="19.49" height="28.04"/><rect class="cls-9" x="987.09" y="205.78" width="19.49" height="28.04"/><rect class="cls-9" x="958.69" y="205.78" width="19.49" height="28.04"/><rect class="cls-9" x="930.3" y="205.78" width="19.49" height="28.04"/><rect class="cls-9" x="987.09" y="247.6" width="19.49" height="28.04"/><rect class="cls-9" x="958.69" y="247.6" width="19.49" height="28.04"/><rect class="cls-9" x="930.3" y="247.6" width="19.49" height="28.04"/><rect class="cls-9" x="987.09" y="289.43" width="19.49" height="28.04"/><rect class="cls-9" x="958.69" y="289.43" width="19.49" height="28.04"/><rect class="cls-9" x="930.3" y="289.43" width="19.49" height="28.04"/><rect class="cls-9" x="1075.01" y="91.6" width="27.45" height="32.44"/><rect class="cls-9" x="1032.96" y="91.6" width="27.45" height="32.44"/><rect class="cls-9" x="990.92" y="91.6" width="27.45" height="32.44"/><rect class="cls-9" x="1075.01" y="140.14" width="27.45" height="32.44"/><rect class="cls-9" x="1032.96" y="140.14" width="27.45" height="32.44"/><rect class="cls-9" x="1075.01" y="188.67" width="27.45" height="32.44"/><rect class="cls-9" x="1032.96" y="188.67" width="27.45" height="32.44"/><rect class="cls-9" x="1075.01" y="237.21" width="27.45" height="32.44"/><rect class="cls-9" x="1032.96" y="237.21" width="27.45" height="32.44"/><rect class="cls-9" x="1359.68" y="17.11" width="27.56" height="38.97"/><rect class="cls-9" x="1319.41" y="17.11" width="27.56" height="38.97"/><rect class="cls-9" x="1279.13" y="17.11" width="27.56" height="38.97"/><rect class="cls-9" x="1359.68" y="76.99" width="27.56" height="38.97"/><rect class="cls-9" x="1319.41" y="76.99" width="27.56" height="38.97"/><rect class="cls-9" x="1279.13" y="76.99" width="27.56" height="38.97"/><rect class="cls-9" x="1359.68" y="136.87" width="27.56" height="38.97"/><rect class="cls-9" x="1319.41" y="136.87" width="27.56" height="38.97"/><rect class="cls-9" x="1279.13" y="136.87" width="27.56" height="38.97"/><rect class="cls-9" x="1359.68" y="196.75" width="27.56" height="38.97"/><rect class="cls-9" x="1319.41" y="196.75" width="27.56" height="38.97"/><rect class="cls-9" x="1359.68" y="256.63" width="27.56" height="38.97"/><rect class="cls-9" x="1319.41" y="256.63" width="27.56" height="38.97"/><rect class="cls-9" x="1274.85" y="196.75" width="22.1" height="31.84"/><rect class="cls-9" x="1233.5" y="196.75" width="22.1" height="31.84"/><rect class="cls-9" x="1274.85" y="246.65" width="22.1" height="31.84"/><rect class="cls-9" x="1233.5" y="246.65" width="22.1" height="31.84"/><rect class="cls-9" x="1274.85" y="296.55" width="22.1" height="31.84"/><rect class="cls-9" x="1233.5" y="296.55" width="22.1" height="31.84"/><rect class="cls-9" x="1459.96" y="177.98" width="19.96" height="32.32"/><rect class="cls-9" x="1496.33" y="177.98" width="19.96" height="32.32"/><rect class="cls-9" x="1459.96" y="230.49" width="19.96" height="32.32"/><rect class="cls-9" x="1496.33" y="230.49" width="19.96" height="32.32"/><rect class="cls-9" x="1459.96" y="283.01" width="19.96" height="32.32"/><rect class="cls-9" x="1496.33" y="283.01" width="19.96" height="32.32"/><rect class="cls-9" x="1651.37" y="76.99" width="104.08" height="25.31"/><rect class="cls-9" x="1652.79" y="119.76" width="27.62" height="27.62"/><rect class="cls-9" x="1690.31" y="119.76" width="27.62" height="27.62"/><rect class="cls-9" x="1727.82" y="119.76" width="27.62" height="27.62"/><rect class="cls-9" x="1652.79" y="164.17" width="27.62" height="27.62"/><rect class="cls-9" x="1690.31" y="164.17" width="27.62" height="27.62"/><rect class="cls-9" x="1727.82" y="164.17" width="27.62" height="27.62"/><rect class="cls-9" x="1652.79" y="208.57" width="27.62" height="27.62"/><rect class="cls-9" x="1690.31" y="208.57" width="27.62" height="27.62"/><rect class="cls-9" x="1727.82" y="208.57" width="27.62" height="27.62"/><rect class="cls-9" x="1652.79" y="252.98" width="27.62" height="27.62"/><rect class="cls-9" x="1690.31" y="252.98" width="27.62" height="27.62"/><rect class="cls-9" x="1727.82" y="252.98" width="27.62" height="27.62"/><rect class="cls-9" x="1578.65" y="175.84" width="21.03" height="31.6"/><rect class="cls-9" x="1615.72" y="175.84" width="21.03" height="31.6"/><rect class="cls-9" x="1578.65" y="228.24" width="21.03" height="31.6"/><rect class="cls-9" x="1615.72" y="228.24" width="21.03" height="31.6"/><rect class="cls-9" x="1578.65" y="280.63" width="21.03" height="31.6"/><rect class="cls-9" x="1615.72" y="280.63" width="21.03" height="31.6"/><rect class="cls-9" x="1915.84" y="65.94" width="24.24" height="31.01"/><rect class="cls-9" x="1957.31" y="65.94" width="24.24" height="31.01"/><rect class="cls-9" x="1915.84" y="112.04" width="24.24" height="31.01"/><rect class="cls-9" x="1957.31" y="112.04" width="24.24" height="31.01"/><rect class="cls-9" x="1915.84" y="158.14" width="24.24" height="31.01"/><rect class="cls-9" x="1957.31" y="158.14" width="24.24" height="31.01"/><rect class="cls-9" x="1915.84" y="204.24" width="24.24" height="31.01"/><rect class="cls-9" x="1957.31" y="204.24" width="24.24" height="31.01"/><rect class="cls-9" x="1915.84" y="250.34" width="24.24" height="31.01"/><rect class="cls-9" x="1957.31" y="250.34" width="24.24" height="31.01"/><rect class="cls-9" x="89.82" y="67.01" width="22.81" height="32.55"/><rect class="cls-9" x="55.6" y="67.01" width="22.81" height="32.55"/><rect class="cls-9" x="21.39" y="67.01" width="22.81" height="32.55"/><rect class="cls-9" x="89.82" y="121.51" width="22.81" height="32.55"/><rect class="cls-9" x="55.6" y="121.51" width="22.81" height="32.55"/><rect class="cls-9" x="21.39" y="121.51" width="22.81" height="32.55"/><rect class="cls-9" x="89.82" y="176" width="22.81" height="32.55"/><rect class="cls-9" x="55.6" y="176" width="22.81" height="32.55"/><rect class="cls-9" x="21.39" y="176" width="22.81" height="32.55"/><rect class="cls-9" x="89.82" y="230.5" width="22.81" height="32.55"/><rect class="cls-9" x="55.6" y="230.5" width="22.81" height="32.55"/><rect class="cls-9" x="21.39" y="230.5" width="22.81" height="32.55"/></g></g></g></svg>