<svg xmlns="http://www.w3.org/2000/svg" xmlns:xlink="http://www.w3.org/1999/xlink" viewBox="0 0 1888.74 471.61"><defs><style>.cls-1{fill:url(#무제_그라디언트_2);}.cls-2{fill:url(#무제_그라디언트_2-2);}.cls-3{fill:url(#무제_그라디언트_2-3);}.cls-4{fill:url(#무제_그라디언트_2-4);}.cls-5{fill:#fff8c5;}.cls-6{fill:#0b1434;}.cls-7{fill:url(#무제_그라디언트_2-5);}.cls-8{opacity:0.2;}.cls-9{fill:url(#무제_그라디언트_2-6);}.cls-10{fill:url(#무제_그라디언트_2-7);}.cls-11{fill:url(#무제_그라디언트_2-8);}.cls-12{fill:url(#무제_그라디언트_2-9);}.cls-13{fill:url(#무제_그라디언트_2-10);}</style><linearGradient id="무제_그라디언트_2" x1="535.71" y1="235.34" x2="535.71" y2="33.68" gradientTransform="matrix(-1, 0, 0, 1, 1891.75, 0)" gradientUnits="userSpaceOnUse"><stop offset="0" stop-color="#0c1124"/><stop offset="1" stop-color="#010308"/></linearGradient><linearGradient id="무제_그라디언트_2-2" x1="1038.01" y1="235.34" x2="1038.01" y2="92.99" gradientTransform="translate(-126.01)" xlink:href="#무제_그라디언트_2"/><linearGradient id="무제_그라디언트_2-3" x1="1402.96" y1="235.34" x2="1402.96" y2="76.06" xlink:href="#무제_그라디언트_2"/><linearGradient id="무제_그라디언트_2-4" x1="1777.67" y1="235.34" x2="1777.67" y2="0" xlink:href="#무제_그라디언트_2"/><linearGradient id="무제_그라디언트_2-5" x1="143.27" y1="235.34" x2="143.27" y2="92.99" xlink:href="#무제_그라디언트_2"/><linearGradient id="무제_그라디언트_2-6" x1="535.71" y1="264.93" x2="535.71" y2="63.27" gradientTransform="translate(1891.75 501.2) rotate(180)" xlink:href="#무제_그라디언트_2"/><linearGradient id="무제_그라디언트_2-7" x1="1038.01" y1="264.93" x2="1038.01" y2="122.58" gradientTransform="matrix(1, 0, 0, -1, -126.01, 501.2)" xlink:href="#무제_그라디언트_2"/><linearGradient id="무제_그라디언트_2-8" x1="1402.96" y1="264.93" x2="1402.96" y2="105.65" gradientTransform="translate(1891.75 501.2) rotate(180)" xlink:href="#무제_그라디언트_2"/><linearGradient id="무제_그라디언트_2-9" x1="1777.67" y1="264.93" x2="1777.67" y2="29.59" gradientTransform="translate(1891.75 501.2) rotate(180)" xlink:href="#무제_그라디언트_2"/><linearGradient id="무제_그라디언트_2-10" x1="143.27" y1="264.93" x2="143.27" y2="122.58" gradientTransform="translate(1891.75 501.2) rotate(180)" xlink:href="#무제_그라디언트_2"/></defs><title>city-reflected</title><g id="레이어_2" data-name="레이어 2"><g id="레이어_20" data-name="레이어 20"><g id="레이어_18" data-name="레이어 18"><polygon class="cls-1" points="1356.74 33.68 1452.33 33.68 1452.33 235.34 1377.67 235.34 1377.67 235.34 1259.75 235.34 1259.75 66.47 1356.74 66.47 1356.74 33.68"/><polygon class="cls-2" points="955.26 139.04 861.75 139.04 861.75 92.99 771.74 92.99 771.74 235.34 842.22 235.34 842.22 235.34 990.14 235.34 990.14 235.34 1052.25 235.34 1052.25 116.02 955.26 116.02 955.26 139.04"/><polygon class="cls-3" points="511.47 76.06 614.74 76.06 614.74 235.34 519.15 235.34 519.15 235.34 362.84 235.34 362.84 146.53 511.47 146.53 511.47 76.06"/><polygon class="cls-4" points="0 0 89.31 0 89.31 129.09 143.04 129.09 143.04 86.52 228.17 86.52 228.17 235.34 174.44 235.34 143.04 235.34 70.47 235.34 0 235.34 0 0"/><rect class="cls-5" x="1422.33" y="44.84" width="19.54" height="23.03" transform="translate(2864.19 112.72) rotate(-180)"/><rect class="cls-6" x="1393.72" y="44.84" width="19.54" height="23.03" transform="translate(2806.98 112.72) rotate(-180)"/><rect class="cls-6" x="1365.11" y="44.84" width="19.54" height="23.03" transform="translate(2749.76 112.72) rotate(-180)"/><rect class="cls-6" x="1422.33" y="76.94" width="19.54" height="23.03" transform="translate(2864.19 176.91) rotate(-180)"/><rect class="cls-6" x="1393.72" y="76.94" width="19.54" height="23.03" transform="translate(2806.98 176.91) rotate(-180)"/><rect class="cls-6" x="1422.33" y="109.04" width="19.54" height="23.03" transform="translate(2864.19 241.11) rotate(-180)"/><rect class="cls-5" x="1393.72" y="109.04" width="19.54" height="23.03" transform="translate(2806.98 241.11) rotate(-180)"/><rect class="cls-6" x="1422.33" y="141.14" width="19.54" height="23.03" transform="translate(2864.19 305.3) rotate(-180)"/><rect class="cls-6" x="1393.72" y="141.14" width="19.54" height="23.03" transform="translate(2806.98 305.3) rotate(-180)"/><rect class="cls-5" x="1269.52" y="76.94" width="95.6" height="18.84" transform="translate(2634.63 172.72) rotate(-180)"/><rect class="cls-6" x="1269.52" y="109.04" width="20.24" height="20.24" transform="translate(2559.27 238.31) rotate(-180)"/><rect class="cls-6" x="1298.82" y="109.04" width="20.24" height="20.24" transform="translate(2617.88 238.31) rotate(-180)"/><rect class="cls-5" x="1328.13" y="109.04" width="20.24" height="20.24" transform="translate(2676.49 238.31) rotate(-180)"/><rect class="cls-6" x="1269.52" y="136.95" width="20.24" height="20.24" transform="translate(2559.27 294.14) rotate(-180)"/><rect class="cls-6" x="1298.82" y="136.95" width="20.24" height="20.24" transform="translate(2617.88 294.14) rotate(-180)"/><rect class="cls-6" x="1328.13" y="136.95" width="20.24" height="20.24" transform="translate(2676.49 294.14) rotate(-180)"/><rect class="cls-5" x="778.72" y="102.06" width="18.14" height="23.03"/><rect class="cls-6" x="807.33" y="102.06" width="18.14" height="23.03"/><rect class="cls-6" x="835.94" y="102.06" width="18.14" height="23.03"/><rect class="cls-6" x="778.72" y="135.56" width="18.14" height="23.03"/><rect class="cls-5" x="807.33" y="135.56" width="18.14" height="23.03"/><rect class="cls-6" x="778.72" y="169.05" width="18.14" height="23.03"/><rect class="cls-6" x="807.33" y="169.05" width="18.14" height="23.03"/><rect class="cls-6" x="778.72" y="202.54" width="18.14" height="23.03"/><rect class="cls-6" x="807.33" y="202.54" width="18.14" height="23.03"/><rect class="cls-6" x="856.17" y="147.42" width="16.75" height="16.75"/><rect class="cls-5" x="881.99" y="147.42" width="16.75" height="16.75"/><rect class="cls-6" x="907.81" y="147.42" width="16.75" height="16.75"/><rect class="cls-6" x="933.63" y="147.42" width="16.75" height="16.75"/><rect class="cls-6" x="959.44" y="147.42" width="16.75" height="16.75"/><rect class="cls-6" x="856.17" y="174.63" width="16.75" height="16.75"/><rect class="cls-6" x="881.99" y="174.63" width="16.75" height="16.75"/><rect class="cls-5" x="907.81" y="174.63" width="16.75" height="16.75"/><rect class="cls-6" x="933.63" y="174.63" width="16.75" height="16.75"/><rect class="cls-6" x="959.44" y="174.63" width="16.75" height="16.75"/><rect class="cls-6" x="993.63" y="125.09" width="20.93" height="17.44"/><rect class="cls-6" x="1022.24" y="125.09" width="20.93" height="17.44"/><rect class="cls-5" x="993.63" y="150.91" width="20.93" height="17.44"/><rect class="cls-6" x="1022.24" y="150.91" width="20.93" height="17.44"/><rect class="cls-6" x="993.63" y="176.72" width="20.93" height="17.44"/><rect class="cls-6" x="1022.24" y="176.72" width="20.93" height="17.44"/><polygon class="cls-7" points="1705.22 139.04 1798.72 139.04 1798.72 92.99 1888.74 92.99 1888.74 235.34 1818.26 235.34 1818.26 235.34 1670.33 235.34 1670.33 235.34 1608.23 235.34 1608.23 116.02 1705.22 116.02 1705.22 139.04"/><rect class="cls-6" x="1863.62" y="102.06" width="18.14" height="23.03" transform="translate(3745.37 227.15) rotate(-180)"/><rect class="cls-6" x="1835.01" y="102.06" width="18.14" height="23.03" transform="translate(3688.16 227.15) rotate(-180)"/><rect class="cls-6" x="1806.4" y="102.06" width="18.14" height="23.03" transform="translate(3630.94 227.15) rotate(-180)"/><rect class="cls-6" x="1863.62" y="135.56" width="18.14" height="23.03" transform="translate(3745.37 294.14) rotate(-180)"/><rect class="cls-5" x="1835.01" y="135.56" width="18.14" height="23.03" transform="translate(3688.16 294.14) rotate(-180)"/><rect class="cls-5" x="1863.62" y="169.05" width="18.14" height="23.03" transform="translate(3745.37 361.12) rotate(-180)"/><rect class="cls-6" x="1835.01" y="169.05" width="18.14" height="23.03" transform="translate(3688.16 361.12) rotate(-180)"/><rect class="cls-6" x="1863.62" y="202.54" width="18.14" height="23.03" transform="translate(3745.37 428.11) rotate(-180)"/><rect class="cls-6" x="1835.01" y="202.54" width="18.14" height="23.03" transform="translate(3688.16 428.11) rotate(-180)"/><rect class="cls-6" x="1787.56" y="147.42" width="16.75" height="16.75" transform="translate(3591.86 311.58) rotate(-180)"/><rect class="cls-6" x="1761.74" y="147.42" width="16.75" height="16.75" transform="translate(3540.23 311.58) rotate(-180)"/><rect class="cls-6" x="1735.92" y="147.42" width="16.75" height="16.75" transform="translate(3488.59 311.58) rotate(-180)"/><rect class="cls-6" x="1710.11" y="147.42" width="16.75" height="16.75" transform="translate(3436.96 311.58) rotate(-180)"/><rect class="cls-6" x="1684.29" y="147.42" width="16.75" height="16.75" transform="translate(3385.32 311.58) rotate(-180)"/><rect class="cls-6" x="1787.56" y="174.63" width="16.75" height="16.75" transform="translate(3591.86 366.01) rotate(-180)"/><rect class="cls-6" x="1761.74" y="174.63" width="16.75" height="16.75" transform="translate(3540.23 366.01) rotate(-180)"/><rect class="cls-5" x="1735.92" y="174.63" width="16.75" height="16.75" transform="translate(3488.59 366.01) rotate(-180)"/><rect class="cls-6" x="1710.11" y="174.63" width="16.75" height="16.75" transform="translate(3436.96 366.01) rotate(-180)"/><rect class="cls-6" x="1684.29" y="174.63" width="16.75" height="16.75" transform="translate(3385.32 366.01) rotate(-180)"/><rect class="cls-6" x="1645.91" y="125.09" width="20.93" height="17.44" transform="translate(3312.75 267.62) rotate(-180)"/><rect class="cls-6" x="1617.3" y="125.09" width="20.93" height="17.44" transform="translate(3255.53 267.62) rotate(-180)"/><rect class="cls-5" x="1645.91" y="150.91" width="20.93" height="17.44" transform="translate(3312.75 319.26) rotate(-180)"/><rect class="cls-6" x="1617.3" y="150.91" width="20.93" height="17.44" transform="translate(3255.53 319.26) rotate(-180)"/><rect class="cls-6" x="1645.91" y="176.72" width="20.93" height="17.44" transform="translate(3312.75 370.89) rotate(-180)"/><rect class="cls-6" x="1617.3" y="176.72" width="20.93" height="17.44" transform="translate(3255.53 370.89) rotate(-180)"/><rect class="cls-5" x="585.43" y="83.57" width="19.54" height="23.72" transform="translate(1190.41 190.87) rotate(-180)"/><rect class="cls-6" x="553.34" y="83.57" width="19.54" height="23.72" transform="translate(1126.21 190.87) rotate(-180)"/><rect class="cls-6" x="521.24" y="83.57" width="19.54" height="23.72" transform="translate(1062.02 190.87) rotate(-180)"/><rect class="cls-6" x="585.43" y="120.55" width="19.54" height="23.72" transform="translate(1190.41 264.83) rotate(-180)"/><rect class="cls-6" x="553.34" y="120.55" width="19.54" height="23.72" transform="translate(1126.21 264.83) rotate(-180)"/><rect class="cls-5" x="521.24" y="120.55" width="19.54" height="23.72" transform="translate(1062.02 264.83) rotate(-180)"/><rect class="cls-6" x="585.43" y="157.54" width="19.54" height="23.72" transform="translate(1190.41 338.79) rotate(-180)"/><rect class="cls-6" x="553.34" y="157.54" width="19.54" height="23.72" transform="translate(1126.21 338.79) rotate(-180)"/><rect class="cls-6" x="521.24" y="157.54" width="19.54" height="23.72" transform="translate(1062.02 338.79) rotate(-180)"/><rect class="cls-6" x="585.43" y="194.52" width="19.54" height="23.72" transform="translate(1190.41 412.76) rotate(-180)"/><rect class="cls-6" x="553.34" y="194.52" width="19.54" height="23.72" transform="translate(1126.21 412.76) rotate(-180)"/><rect class="cls-6" x="521.24" y="194.52" width="19.54" height="23.72" transform="translate(1062.02 412.76) rotate(-180)"/><rect class="cls-5" x="480.77" y="157.54" width="25.82" height="25.82" transform="translate(987.35 340.89) rotate(-180)"/><rect class="cls-6" x="445.18" y="157.54" width="25.82" height="25.82" transform="translate(916.18 340.89) rotate(-180)"/><rect class="cls-5" x="409.59" y="157.54" width="25.82" height="25.82" transform="translate(845.01 340.89) rotate(-180)"/><rect class="cls-6" x="374.01" y="157.54" width="25.82" height="25.82" transform="translate(773.83 340.89) rotate(-180)"/><rect class="cls-6" x="480.77" y="196.61" width="25.82" height="25.82" transform="translate(987.35 419.04) rotate(-180)"/><rect class="cls-6" x="445.18" y="196.61" width="25.82" height="25.82" transform="translate(916.18 419.04) rotate(-180)"/><rect class="cls-6" x="409.59" y="196.61" width="25.82" height="25.82" transform="translate(845.01 419.04) rotate(-180)"/><rect class="cls-6" x="374.01" y="196.61" width="25.82" height="25.82" transform="translate(773.83 419.04) rotate(-180)"/><rect class="cls-6" x="197.47" y="94.04" width="19.54" height="19.54" transform="translate(414.48 207.61) rotate(-180)"/><rect class="cls-6" x="168.16" y="94.04" width="19.54" height="19.54" transform="translate(355.87 207.61) rotate(-180)"/><rect class="cls-5" x="203.75" y="124.74" width="17.44" height="19.54" transform="translate(424.95 269.02) rotate(-180)"/><rect class="cls-6" x="177.24" y="124.74" width="17.44" height="19.54" transform="translate(371.91 269.02) rotate(-180)"/><rect class="cls-6" x="203.75" y="155.44" width="17.44" height="19.54" transform="translate(424.95 330.42) rotate(-180)"/><rect class="cls-6" x="177.24" y="155.44" width="17.44" height="19.54" transform="translate(371.91 330.42) rotate(-180)"/><rect class="cls-6" x="203.75" y="186.14" width="17.44" height="19.54" transform="translate(424.95 391.83) rotate(-180)"/><rect class="cls-6" x="177.24" y="186.14" width="17.44" height="19.54" transform="translate(371.91 391.83) rotate(-180)"/><rect class="cls-6" x="142.35" y="138" width="18.84" height="18.84" transform="translate(303.53 294.83) rotate(-180)"/><rect class="cls-5" x="114.44" y="138" width="18.84" height="18.84" transform="translate(247.71 294.83) rotate(-180)"/><rect class="cls-6" x="86.52" y="138" width="18.84" height="18.84" transform="translate(191.89 294.83) rotate(-180)"/><rect class="cls-5" x="142.35" y="167.3" width="18.84" height="18.84" transform="translate(303.53 353.45) rotate(-180)"/><rect class="cls-6" x="114.44" y="167.3" width="18.84" height="18.84" transform="translate(247.71 353.45) rotate(-180)"/><rect class="cls-6" x="86.52" y="167.3" width="18.84" height="18.84" transform="translate(191.89 353.45) rotate(-180)"/><rect class="cls-6" x="10.47" y="8.91" width="67.68" height="16.05" transform="translate(88.62 33.87) rotate(-180)"/><rect class="cls-5" x="60.01" y="35.42" width="18.14" height="18.14" transform="translate(138.16 88.99) rotate(-180)"/><rect class="cls-6" x="34.89" y="35.42" width="18.14" height="18.14" transform="translate(87.92 88.99) rotate(-180)"/><rect class="cls-6" x="9.77" y="35.42" width="18.14" height="18.14" transform="translate(37.68 88.99) rotate(-180)"/><rect class="cls-6" x="60.01" y="61.94" width="18.14" height="18.14" transform="translate(138.16 142.02) rotate(-180)"/><rect class="cls-6" x="34.89" y="61.94" width="18.14" height="18.14" transform="translate(87.92 142.02) rotate(-180)"/><rect class="cls-5" x="9.77" y="61.94" width="18.14" height="18.14" transform="translate(37.68 142.02) rotate(-180)"/><rect class="cls-6" x="60.01" y="88.46" width="18.14" height="18.14" transform="translate(138.16 195.05) rotate(-180)"/><rect class="cls-6" x="34.89" y="88.46" width="18.14" height="18.14" transform="translate(87.92 195.05) rotate(-180)"/><rect class="cls-6" x="9.77" y="88.46" width="18.14" height="18.14" transform="translate(37.68 195.05) rotate(-180)"/><rect class="cls-5" x="60.01" y="114.97" width="18.14" height="18.14" transform="translate(138.16 248.08) rotate(-180)"/><rect class="cls-6" x="34.89" y="114.97" width="18.14" height="18.14" transform="translate(87.92 248.08) rotate(-180)"/><rect class="cls-6" x="9.77" y="114.97" width="18.14" height="18.14" transform="translate(37.68 248.08) rotate(-180)"/><rect class="cls-6" x="34.89" y="141.49" width="18.14" height="18.14" transform="translate(87.92 301.11) rotate(-180)"/><rect class="cls-6" x="27.91" y="202.36" width="33.49" height="32.98" transform="translate(89.32 437.69) rotate(-180)"/><rect class="cls-6" x="1289.75" y="173.93" width="38.38" height="38.38" transform="translate(2617.88 386.24) rotate(-180)"/><g class="cls-8"><polygon class="cls-9" points="1356.74 437.93 1452.33 437.93 1452.33 236.27 1377.67 236.27 1377.67 236.27 1259.75 236.27 1259.75 405.13 1356.74 405.13 1356.74 437.93"/><polygon class="cls-10" points="955.26 332.56 861.75 332.56 861.75 378.62 771.74 378.62 771.74 236.27 842.22 236.27 842.22 236.27 990.14 236.27 990.14 236.27 1052.25 236.27 1052.25 355.59 955.26 355.59 955.26 332.56"/><polygon class="cls-11" points="511.47 395.55 614.74 395.55 614.74 236.27 519.15 236.27 519.15 236.27 362.84 236.27 362.84 325.07 511.47 325.07 511.47 395.55"/><polygon class="cls-12" points="0 471.61 89.31 471.61 89.31 342.52 143.04 342.52 143.04 385.08 228.17 385.08 228.17 236.27 174.44 236.27 143.04 236.27 70.47 236.27 0 236.27 0 471.61"/><rect class="cls-5" x="1422.33" y="403.74" width="19.54" height="23.03" transform="translate(2864.19 830.5) rotate(180)"/><rect class="cls-6" x="1393.72" y="403.74" width="19.54" height="23.03" transform="translate(2806.98 830.5) rotate(180)"/><rect class="cls-6" x="1365.11" y="403.74" width="19.54" height="23.03" transform="translate(2749.76 830.5) rotate(180)"/><rect class="cls-6" x="1422.33" y="371.64" width="19.54" height="23.03" transform="translate(2864.19 766.31) rotate(180)"/><rect class="cls-6" x="1393.72" y="371.64" width="19.54" height="23.03" transform="translate(2806.98 766.31) rotate(180)"/><rect class="cls-6" x="1422.33" y="339.54" width="19.54" height="23.03" transform="translate(2864.19 702.11) rotate(180)"/><rect class="cls-5" x="1393.72" y="339.54" width="19.54" height="23.03" transform="translate(2806.98 702.11) rotate(180)"/><rect class="cls-6" x="1422.33" y="307.44" width="19.54" height="23.03" transform="translate(2864.19 637.92) rotate(180)"/><rect class="cls-6" x="1393.72" y="307.44" width="19.54" height="23.03" transform="translate(2806.98 637.92) rotate(180)"/><rect class="cls-5" x="1269.52" y="375.83" width="95.6" height="18.84" transform="translate(2634.63 770.49) rotate(180)"/><rect class="cls-6" x="1269.52" y="342.33" width="20.24" height="20.24" transform="translate(2559.27 704.9) rotate(180)"/><rect class="cls-6" x="1298.82" y="342.33" width="20.24" height="20.24" transform="translate(2617.88 704.9) rotate(180)"/><rect class="cls-5" x="1328.13" y="342.33" width="20.24" height="20.24" transform="translate(2676.49 704.9) rotate(180)"/><rect class="cls-6" x="1269.52" y="314.42" width="20.24" height="20.24" transform="translate(2559.27 649.08) rotate(180)"/><rect class="cls-6" x="1298.82" y="314.42" width="20.24" height="20.24" transform="translate(2617.88 649.08) rotate(180)"/><rect class="cls-6" x="1328.13" y="314.42" width="20.24" height="20.24" transform="translate(2676.49 649.08) rotate(180)"/><rect class="cls-5" x="778.72" y="346.52" width="18.14" height="23.03"/><rect class="cls-6" x="807.33" y="346.52" width="18.14" height="23.03"/><rect class="cls-6" x="835.94" y="346.52" width="18.14" height="23.03"/><rect class="cls-6" x="778.72" y="313.03" width="18.14" height="23.03"/><rect class="cls-5" x="807.33" y="313.03" width="18.14" height="23.03"/><rect class="cls-6" x="778.72" y="279.53" width="18.14" height="23.03"/><rect class="cls-6" x="807.33" y="279.53" width="18.14" height="23.03"/><rect class="cls-6" x="778.72" y="246.04" width="18.14" height="23.03"/><rect class="cls-6" x="807.33" y="246.04" width="18.14" height="23.03"/><rect class="cls-6" x="856.17" y="307.44" width="16.75" height="16.75"/><rect class="cls-5" x="881.99" y="307.44" width="16.75" height="16.75"/><rect class="cls-6" x="907.81" y="307.44" width="16.75" height="16.75"/><rect class="cls-6" x="933.63" y="307.44" width="16.75" height="16.75"/><rect class="cls-6" x="959.44" y="307.44" width="16.75" height="16.75"/><rect class="cls-6" x="856.17" y="280.23" width="16.75" height="16.75"/><rect class="cls-6" x="881.99" y="280.23" width="16.75" height="16.75"/><rect class="cls-5" x="907.81" y="280.23" width="16.75" height="16.75"/><rect class="cls-6" x="933.63" y="280.23" width="16.75" height="16.75"/><rect class="cls-6" x="959.44" y="280.23" width="16.75" height="16.75"/><rect class="cls-6" x="993.63" y="329.08" width="20.93" height="17.44"/><rect class="cls-6" x="1022.24" y="329.08" width="20.93" height="17.44"/><rect class="cls-5" x="993.63" y="303.26" width="20.93" height="17.44"/><rect class="cls-6" x="1022.24" y="303.26" width="20.93" height="17.44"/><rect class="cls-6" x="993.63" y="277.44" width="20.93" height="17.44"/><rect class="cls-6" x="1022.24" y="277.44" width="20.93" height="17.44"/><polygon class="cls-13" points="1705.22 332.56 1798.72 332.56 1798.72 378.62 1888.74 378.62 1888.74 236.27 1818.26 236.27 1818.26 236.27 1670.33 236.27 1670.33 236.27 1608.23 236.27 1608.23 355.59 1705.22 355.59 1705.22 332.56"/><rect class="cls-6" x="1863.62" y="346.52" width="18.14" height="23.03" transform="translate(3745.37 716.07) rotate(180)"/><rect class="cls-6" x="1835.01" y="346.52" width="18.14" height="23.03" transform="translate(3688.16 716.07) rotate(180)"/><rect class="cls-6" x="1806.4" y="346.52" width="18.14" height="23.03" transform="translate(3630.94 716.07) rotate(180)"/><rect class="cls-6" x="1863.62" y="313.03" width="18.14" height="23.03" transform="translate(3745.37 649.08) rotate(180)"/><rect class="cls-5" x="1835.01" y="313.03" width="18.14" height="23.03" transform="translate(3688.16 649.08) rotate(180)"/><rect class="cls-5" x="1863.62" y="279.53" width="18.14" height="23.03" transform="translate(3745.37 582.09) rotate(180)"/><rect class="cls-6" x="1835.01" y="279.53" width="18.14" height="23.03" transform="translate(3688.16 582.09) rotate(180)"/><rect class="cls-6" x="1863.62" y="246.04" width="18.14" height="23.03" transform="translate(3745.37 515.11) rotate(180)"/><rect class="cls-6" x="1835.01" y="246.04" width="18.14" height="23.03" transform="translate(3688.16 515.11) rotate(180)"/><rect class="cls-6" x="1787.56" y="307.44" width="16.75" height="16.75" transform="translate(3591.86 631.64) rotate(180)"/><rect class="cls-6" x="1761.74" y="307.44" width="16.75" height="16.75" transform="translate(3540.23 631.64) rotate(180)"/><rect class="cls-6" x="1735.92" y="307.44" width="16.75" height="16.75" transform="translate(3488.59 631.64) rotate(180)"/><rect class="cls-6" x="1710.11" y="307.44" width="16.75" height="16.75" transform="translate(3436.96 631.64) rotate(180)"/><rect class="cls-6" x="1684.29" y="307.44" width="16.75" height="16.75" transform="translate(3385.32 631.64) rotate(180)"/><rect class="cls-6" x="1787.56" y="280.23" width="16.75" height="16.75" transform="translate(3591.86 577.21) rotate(180)"/><rect class="cls-6" x="1761.74" y="280.23" width="16.75" height="16.75" transform="translate(3540.23 577.21) rotate(180)"/><rect class="cls-5" x="1735.92" y="280.23" width="16.75" height="16.75" transform="translate(3488.59 577.21) rotate(180)"/><rect class="cls-6" x="1710.11" y="280.23" width="16.75" height="16.75" transform="translate(3436.96 577.21) rotate(180)"/><rect class="cls-6" x="1684.29" y="280.23" width="16.75" height="16.75" transform="translate(3385.32 577.21) rotate(180)"/><rect class="cls-6" x="1645.91" y="329.08" width="20.93" height="17.44" transform="translate(3312.75 675.6) rotate(180)"/><rect class="cls-6" x="1617.3" y="329.08" width="20.93" height="17.44" transform="translate(3255.53 675.6) rotate(180)"/><rect class="cls-5" x="1645.91" y="303.26" width="20.93" height="17.44" transform="translate(3312.75 623.96) rotate(180)"/><rect class="cls-6" x="1617.3" y="303.26" width="20.93" height="17.44" transform="translate(3255.53 623.96) rotate(180)"/><rect class="cls-6" x="1645.91" y="277.44" width="20.93" height="17.44" transform="translate(3312.75 572.32) rotate(180)"/><rect class="cls-6" x="1617.3" y="277.44" width="20.93" height="17.44" transform="translate(3255.53 572.32) rotate(180)"/><rect class="cls-5" x="585.43" y="364.31" width="19.54" height="23.72" transform="translate(1190.41 752.35) rotate(180)"/><rect class="cls-6" x="553.34" y="364.31" width="19.54" height="23.72" transform="translate(1126.21 752.35) rotate(180)"/><rect class="cls-6" x="521.24" y="364.31" width="19.54" height="23.72" transform="translate(1062.02 752.35) rotate(180)"/><rect class="cls-6" x="585.43" y="327.33" width="19.54" height="23.72" transform="translate(1190.41 678.39) rotate(180)"/><rect class="cls-6" x="553.34" y="327.33" width="19.54" height="23.72" transform="translate(1126.21 678.39) rotate(180)"/><rect class="cls-5" x="521.24" y="327.33" width="19.54" height="23.72" transform="translate(1062.02 678.39) rotate(180)"/><rect class="cls-6" x="585.43" y="290.35" width="19.54" height="23.72" transform="translate(1190.41 604.42) rotate(180)"/><rect class="cls-6" x="553.34" y="290.35" width="19.54" height="23.72" transform="translate(1126.21 604.42) rotate(180)"/><rect class="cls-6" x="521.24" y="290.35" width="19.54" height="23.72" transform="translate(1062.02 604.42) rotate(180)"/><rect class="cls-6" x="585.43" y="253.37" width="19.54" height="23.72" transform="translate(1190.41 530.46) rotate(180)"/><rect class="cls-6" x="553.34" y="253.37" width="19.54" height="23.72" transform="translate(1126.21 530.46) rotate(180)"/><rect class="cls-6" x="521.24" y="253.37" width="19.54" height="23.72" transform="translate(1062.02 530.46) rotate(180)"/><rect class="cls-5" x="480.77" y="288.26" width="25.82" height="25.82" transform="translate(987.35 602.33) rotate(180)"/><rect class="cls-6" x="445.18" y="288.26" width="25.82" height="25.82" transform="translate(916.18 602.33) rotate(180)"/><rect class="cls-5" x="409.59" y="288.26" width="25.82" height="25.82" transform="translate(845.01 602.33) rotate(180)"/><rect class="cls-6" x="374.01" y="288.26" width="25.82" height="25.82" transform="translate(773.83 602.33) rotate(180)"/><rect class="cls-6" x="480.77" y="249.18" width="25.82" height="25.82" transform="translate(987.35 524.18) rotate(180)"/><rect class="cls-6" x="445.18" y="249.18" width="25.82" height="25.82" transform="translate(916.18 524.18) rotate(180)"/><rect class="cls-6" x="409.59" y="249.18" width="25.82" height="25.82" transform="translate(845.01 524.18) rotate(180)"/><rect class="cls-6" x="374.01" y="249.18" width="25.82" height="25.82" transform="translate(773.83 524.18) rotate(180)"/><rect class="cls-6" x="197.47" y="358.03" width="19.54" height="19.54" transform="translate(414.48 735.6) rotate(180)"/><rect class="cls-6" x="168.16" y="358.03" width="19.54" height="19.54" transform="translate(355.87 735.6) rotate(180)"/><rect class="cls-5" x="203.75" y="327.33" width="17.44" height="19.54" transform="translate(424.95 674.2) rotate(180)"/><rect class="cls-6" x="177.24" y="327.33" width="17.44" height="19.54" transform="translate(371.91 674.2) rotate(180)"/><rect class="cls-6" x="203.75" y="296.63" width="17.44" height="19.54" transform="translate(424.95 612.8) rotate(180)"/><rect class="cls-6" x="177.24" y="296.63" width="17.44" height="19.54" transform="translate(371.91 612.8) rotate(180)"/><rect class="cls-6" x="203.75" y="265.93" width="17.44" height="19.54" transform="translate(424.95 551.39) rotate(180)"/><rect class="cls-6" x="177.24" y="265.93" width="17.44" height="19.54" transform="translate(371.91 551.39) rotate(180)"/><rect class="cls-6" x="142.35" y="314.77" width="18.84" height="18.84" transform="translate(303.53 648.38) rotate(180)"/><rect class="cls-5" x="114.44" y="314.77" width="18.84" height="18.84" transform="translate(247.71 648.38) rotate(180)"/><rect class="cls-6" x="86.52" y="314.77" width="18.84" height="18.84" transform="translate(191.89 648.38) rotate(180)"/><rect class="cls-5" x="142.35" y="285.46" width="18.84" height="18.84" transform="translate(303.53 589.77) rotate(180)"/><rect class="cls-6" x="114.44" y="285.46" width="18.84" height="18.84" transform="translate(247.71 589.77) rotate(180)"/><rect class="cls-6" x="86.52" y="285.46" width="18.84" height="18.84" transform="translate(191.89 589.77) rotate(180)"/><rect class="cls-6" x="10.47" y="446.65" width="67.68" height="16.05" transform="translate(88.62 909.35) rotate(180)"/><rect class="cls-5" x="60.01" y="418.04" width="18.14" height="18.14" transform="translate(138.16 854.23) rotate(180)"/><rect class="cls-6" x="34.89" y="418.04" width="18.14" height="18.14" transform="translate(87.92 854.23) rotate(180)"/><rect class="cls-6" x="9.77" y="418.04" width="18.14" height="18.14" transform="translate(37.68 854.23) rotate(180)"/><rect class="cls-6" x="60.01" y="391.53" width="18.14" height="18.14" transform="translate(138.16 801.19) rotate(180)"/><rect class="cls-6" x="34.89" y="391.53" width="18.14" height="18.14" transform="translate(87.92 801.19) rotate(180)"/><rect class="cls-5" x="9.77" y="391.53" width="18.14" height="18.14" transform="translate(37.68 801.19) rotate(180)"/><rect class="cls-6" x="60.01" y="365.01" width="18.14" height="18.14" transform="translate(138.16 748.16) rotate(180)"/><rect class="cls-6" x="34.89" y="365.01" width="18.14" height="18.14" transform="translate(87.92 748.16) rotate(180)"/><rect class="cls-6" x="9.77" y="365.01" width="18.14" height="18.14" transform="translate(37.68 748.16) rotate(180)"/><rect class="cls-5" x="60.01" y="338.5" width="18.14" height="18.14" transform="translate(138.16 695.13) rotate(180)"/><rect class="cls-6" x="34.89" y="338.5" width="18.14" height="18.14" transform="translate(87.92 695.13) rotate(180)"/><rect class="cls-6" x="9.77" y="338.5" width="18.14" height="18.14" transform="translate(37.68 695.13) rotate(180)"/><rect class="cls-6" x="34.89" y="311.98" width="18.14" height="18.14" transform="translate(87.92 642.1) rotate(180)"/><rect class="cls-6" x="27.91" y="236.27" width="33.49" height="32.98" transform="translate(89.32 505.52) rotate(180)"/><rect class="cls-6" x="1289.75" y="259.3" width="38.38" height="38.38" transform="translate(2617.88 556.97) rotate(180)"/></g></g></g></g></svg>