<svg xmlns="http://www.w3.org/2000/svg" xmlns:xlink="http://www.w3.org/1999/xlink" viewBox="0 0 1007.93 1428.23"><defs><style>.cls-1{fill:url(#무제_그라디언트_12);}.cls-2{fill:url(#무제_그라디언트_96);}.cls-3{fill:url(#무제_그라디언트_10);}.cls-4,.cls-5,.cls-6{fill:#d3c998;}.cls-4{opacity:0.15;}.cls-5{opacity:0.35;}.cls-6{opacity:0.39;}.cls-7{fill:#fff;}.cls-8{opacity:0.5;}.cls-9{fill:url(#무제_그라디언트_12-2);}.cls-10{fill:url(#무제_그라디언트_96-2);}.cls-11{fill:url(#무제_그라디언트_10-2);}</style><radialGradient id="무제_그라디언트_12" cx="503.96" cy="503.96" r="503.96" gradientUnits="userSpaceOnUse"><stop offset="0.3" stop-color="#fff8c5" stop-opacity="0.3"/><stop offset="0.36" stop-color="#fff8c5" stop-opacity="0.25"/><stop offset="0.52" stop-color="#fff8c5" stop-opacity="0.14"/><stop offset="0.68" stop-color="#fff8c5" stop-opacity="0.06"/><stop offset="0.84" stop-color="#fff8c5" stop-opacity="0.02"/><stop offset="1" stop-color="#fff8c5" stop-opacity="0"/></radialGradient><radialGradient id="무제_그라디언트_96" cx="503.96" cy="503.96" r="160.55" gradientUnits="userSpaceOnUse"><stop offset="0.53" stop-color="#fff8c5"/><stop offset="0.66" stop-color="#fff8c5" stop-opacity="0.99"/><stop offset="0.73" stop-color="#fff8c5" stop-opacity="0.96"/><stop offset="0.78" stop-color="#fff8c5" stop-opacity="0.91"/><stop offset="0.82" stop-color="#fff8c5" stop-opacity="0.84"/><stop offset="0.86" stop-color="#fff8c5" stop-opacity="0.74"/><stop offset="0.89" stop-color="#fff8c5" stop-opacity="0.63"/><stop offset="0.92" stop-color="#fff8c5" stop-opacity="0.49"/><stop offset="0.95" stop-color="#fff8c5" stop-opacity="0.33"/><stop offset="0.98" stop-color="#fff8c5" stop-opacity="0.16"/><stop offset="1" stop-color="#fff8c5" stop-opacity="0"/></radialGradient><radialGradient id="무제_그라디언트_10" cx="530.34" cy="593.52" r="171.57" gradientUnits="userSpaceOnUse"><stop offset="0" stop-color="#fffbe1"/><stop offset="1" stop-color="#fff8c5"/></radialGradient><radialGradient id="무제_그라디언트_12-2" cx="503.96" cy="924.27" r="503.96" xlink:href="#무제_그라디언트_12"/><radialGradient id="무제_그라디언트_96-2" cx="503.96" cy="924.27" r="160.55" xlink:href="#무제_그라디언트_96"/><radialGradient id="무제_그라디언트_10-2" cx="530.34" cy="1013.82" r="171.57" xlink:href="#무제_그라디언트_10"/></defs><title>moon-reflected</title><g id="레이어_2" data-name="레이어 2"><g id="레이어_20" data-name="레이어 20"><g id="레이어_15" data-name="레이어 15"><circle class="cls-1" cx="503.96" cy="503.96" r="503.96"/><circle class="cls-2" cx="503.96" cy="503.96" r="176.51"/><circle class="cls-3" cx="503.96" cy="503.96" r="138.98"/><path class="cls-4" d="M639.38,492.3a176.09,176.09,0,0,0-7.66-32,112.4,112.4,0,0,0-6.39-14.91c-4-7.71-8.76-13.77-17.36-17.49a49.72,49.72,0,0,1-11.19-6.37c-10.44-8.19-17.49-16.47-31.4-18.73-8.84-1.43-17.85-.35-26.7-1.61-8.45-1.2-18-8.78-26.59-5.12-6.75,2.89-8.28,11-12.43,16.31-5.88,7.51-11.19,14.1-14.62,23.32-1,2.62-1.88,5.41-3.94,7.28s-5.75,2.3-7.43.08a6.81,6.81,0,0,1-1.08-3.45c-.44-4.26-.19-8.89-2.67-12.38-.84-1.19-2-2.36-1.93-3.81a5.21,5.21,0,0,1,1.15-2.46c6.79-9.92,7.36-23.73-5-29.08-20.5-8.87-34.41,10.2-48.79,20.31a11.65,11.65,0,0,1-2.66,1.5,21,21,0,0,1-3.87.75c-17.92,3-30.31,33.34-34.76,48.43-6,20.4-6.12,42.3-1.72,63,3.22,15.2,13.84,36.37,33,25.36,7.56-4.35,8.42-17.9,18.77-17.73a1.74,1.74,0,0,1,.93.2,1.84,1.84,0,0,1,.6.85c3.69,8.1,3.86,17.35,4.59,26.07.35,4.23.56,7.35,3.19,10.82s7.05,3.58,8.53,7.85c.69,2,.85,4.08,1.48,6.06a13.62,13.62,0,0,0,10.89,9.16c2,.27,4,.09,6,.27,1.74.16,3.45.58,5.19.69,8.45.49,17.23-8.7,24.29-12.58,7.33-4,8.75-12.8,4.08-19.47-2.69-3.84-6.49-6.79-9.32-10.53-1.07-1.42-2-3.15-1.63-4.88a7,7,0,0,1,1.71-2.77q6.06-7,12.13-14.08c7.37-8.55,8.86-26.25-6.54-26.57,3.84-6.4,8.19-12.91,11.14-19.78,3.28-6.58,5.55-14.11,5.55-21.49a6.3,6.3,0,0,1,.71-3.2,5.47,5.47,0,0,1,1.91-1.59c3.7-2.18,13.91-8.12,17.23-3.5,4.32,6,7.75,11.11,16.48,12.25a10.37,10.37,0,0,1,4,1.26c7.9,4.82,5.68,15.54,12.93,21.15,3.83,3,8.69,3.54,13.38,3.15,6.11-.51,7.36-3,11.64,1.69,6.4,7,10,16,14,24.56,3.35,7.17,6.35,16.89,15.37,18.8,5.51,1.16,11-1.31,14.84-5.47C638.56,522.45,641.33,505.46,639.38,492.3Z"/><path class="cls-5" d="M482.11,452.73c-3.38,0-6.71.18-9.68.17-1.54,0-3.3-.16-4.23-1.39a5.32,5.32,0,0,1-.76-2.83q-1.35-19.59-1.37-39.22c0-6.72-.18-14.44-5.71-19.11a16.52,16.52,0,0,0-20.53-.56c-1.49,1.16-2.76,2.58-4.25,3.74a37.63,37.63,0,0,1-7.25,3.94c-39.66,18.62-60.24,62.89-57.59,105.42.57,9.23,5.76,17.5,15.51,18.58a24.59,24.59,0,0,0,13.1-2.53c3.91-1.87,8.54-8.05,12.52-8.55,2.9-.36,6.79,1.15,9.23,2.53a3.94,3.94,0,0,1,1.47,1.24,4.74,4.74,0,0,1,.48,2.27c.49,10,4.38,19.35,7.3,28.8,2.55,8.23,5.15,15.92,12.33,21.36a13.43,13.43,0,0,1,3.56,3.27c1.12,1.79,1.13,4,1.43,6.11.92,6.38,5.32,12.31,11.41,14.45s13.59,0,17.17-5.35c2.62-3.94,3-8.91,3.29-13.63q.79-12.93,1.6-25.86c.49-8-1.65-15.18-2.12-23.11a77,77,0,0,1,.91-14.13,8.62,8.62,0,0,1,1.07-3.72c1.9-2.84,6.8-4.4,9.46-6.76a56.6,56.6,0,0,0,10.16-11.52c5.07-7.78,8.61-18.5,2.2-26.61C498,453.6,489.88,452.71,482.11,452.73Z"/><path class="cls-5" d="M631.67,480c-6.82-24.15-17.8-51-42.62-59.83a19,19,0,0,1-4.7-2.08,22.84,22.84,0,0,1-3.37-3.37c-3-3.25-7.1-5.81-11.47-5.66-1.45,0-2.87.38-4.32.43a21.56,21.56,0,0,1-4.08-.35A163,163,0,0,0,536.9,407c-17.36-2.48-33.5,1.59-41.33,19.35a17.15,17.15,0,0,0,3,18.08,14.19,14.19,0,0,0,9.34,4.95c2.95.24,5.87-.59,8.8-1,10.41-1.61,23,.27,32.25,5.53,8.8,5,11,16.05,18.81,22.05a17.2,17.2,0,0,0,7,3.15c2.55.52,6.08-.94,8.21-.38,4.19,1.11,6,9.66,7.35,13.17,1.22,3.29,2.11,7.1,4.17,9.94,2.36,3.25,5.41,5.38,6.91,9.33,3,8,3.25,15.13,12.1,18.82,6.78,2.83,14.09.63,17.5-6.2,5.92-11.85,5.69-24.77,2.4-37.38Q632.58,483.2,631.67,480Z"/><path class="cls-6" d="M476.15,457.66c-2.93,0-5.8.16-8.36.14-1.33,0-2.85-.13-3.65-1.2a4.45,4.45,0,0,1-.66-2.44q-1.17-16.91-1.19-33.87c0-5.8-.15-12.46-4.93-16.5a14.28,14.28,0,0,0-17.73-.48c-1.29,1-2.38,2.23-3.67,3.23a32.07,32.07,0,0,1-6.26,3.4c-34.25,16.08-52,54.31-49.73,91,.5,8,5,15.12,13.4,16a21.22,21.22,0,0,0,11.31-2.19c3.37-1.61,7.37-7,10.81-7.38,2.5-.31,5.86,1,8,2.19a3.4,3.4,0,0,1,1.27,1.07,4,4,0,0,1,.42,2c.42,8.64,3.78,16.7,6.3,24.87,2.2,7.11,4.45,13.74,10.65,18.45a11.5,11.5,0,0,1,3.07,2.82c1,1.54,1,3.47,1.23,5.27a15.68,15.68,0,0,0,9.86,12.48c5.26,1.85,11.73,0,14.82-4.62,2.27-3.4,2.59-7.69,2.84-11.77l1.38-22.33c.43-6.89-1.42-13.1-1.82-20a66.58,66.58,0,0,1,.78-12.2,7.38,7.38,0,0,1,.93-3.21c1.63-2.45,5.87-3.8,8.17-5.84a49.14,49.14,0,0,0,8.77-9.94c4.38-6.73,7.44-16,1.9-23C489.84,458.41,482.86,457.65,476.15,457.66Z"/><path class="cls-6" d="M621,472.51c-5.73-20.29-15-42.8-35.8-50.26a16.36,16.36,0,0,1-3.94-1.74,18.93,18.93,0,0,1-2.83-2.83c-2.53-2.74-6-4.89-9.64-4.77-1.21,0-2.41.33-3.63.37a18,18,0,0,1-3.43-.3,136.26,136.26,0,0,0-20.33-1.8c-14.58-2.08-28.14,1.34-34.72,16.25a14.41,14.41,0,0,0,2.48,15.19,12,12,0,0,0,7.85,4.16c2.48.2,4.94-.5,7.4-.88,8.74-1.35,19.3.23,27.08,4.65,7.4,4.2,9.2,13.48,15.8,18.52a14.56,14.56,0,0,0,5.91,2.65c2.14.43,5.11-.79,6.9-.32,3.52.93,5.08,8.11,6.17,11.06,1,2.76,1.77,6,3.51,8.35,2,2.73,4.54,4.52,5.8,7.84,2.54,6.74,2.72,12.71,10.16,15.81,5.69,2.37,11.84.53,14.7-5.21,5-9.95,4.78-20.81,2-31.4C622,476.1,621.5,474.31,621,472.51Z"/><path class="cls-7" d="M604.11,574.65c-14.63,16.17-31.44,30.94-53.73,32.41,13-12.11,22.37-25.85,25.72-43.71.26-1.33-1.79-1.91-2-.56-3.37,17.92-12.82,31.54-26.06,43.6a2.48,2.48,0,0,0-1.22-.95,3.89,3.89,0,0,0-3.3.56c.71-23.89.94-47.6-3.7-71.17-.27-1.34-2.31-.77-2,.57,4.67,23.68,4.33,47.52,3.61,71.52h0a99.36,99.36,0,0,1-17.56-8.49c-1.16-.72-2.23,1.12-1.07,1.83a102,102,0,0,0,16.69,8.18,5.37,5.37,0,0,0-1.67,2.24c-26.4,7.13-52.26,1.11-78.08-5.75a1.06,1.06,0,0,0-.57,2c26.24,7,52.61,13,79.39,5.71,1.32,1,3.75.71,5.21.24a64.67,64.67,0,0,1-15.13,25.4c-.94,1,.55,2.49,1.5,1.5a67.18,67.18,0,0,0,16.34-28.41v0a6.11,6.11,0,0,0,1.6-2.13c23.95-.52,42.12-16,57.63-33.1C606.52,575.14,605,573.64,604.11,574.65Zm-59,35.07a5.42,5.42,0,0,1-4.24,1.47,6.46,6.46,0,0,1-.76-.18.52.52,0,0,0-.06-.13l.19-.09a4.43,4.43,0,0,1,1.4-1.5l.08,0a.9.9,0,0,0,1.21-.6,1,1,0,0,1,1.14-.61l.38-.22a1.05,1.05,0,0,0,1,1.4h.11Z"/><g class="cls-8"><circle class="cls-9" cx="503.96" cy="924.27" r="503.96"/><circle class="cls-10" cx="503.96" cy="924.27" r="176.51"/><circle class="cls-11" cx="503.96" cy="924.27" r="138.98"/><path class="cls-4" d="M639.38,912.6a175.79,175.79,0,0,0-7.66-32,112.54,112.54,0,0,0-6.39-14.92c-4-7.71-8.76-13.77-17.36-17.48a50.14,50.14,0,0,1-11.19-6.38c-10.44-8.18-17.49-16.47-31.4-18.73-8.84-1.43-17.85-.34-26.7-1.6-8.45-1.21-18-8.79-26.59-5.12-6.75,2.88-8.28,11-12.43,16.3-5.88,7.51-11.19,14.1-14.62,23.33-1,2.61-1.88,5.4-3.94,7.28s-5.75,2.29-7.43.07a6.75,6.75,0,0,1-1.08-3.45c-.44-4.25-.19-8.89-2.67-12.38-.84-1.19-2-2.35-1.93-3.8a5.12,5.12,0,0,1,1.15-2.46c6.79-9.93,7.36-23.74-5-29.09-20.5-8.87-34.41,10.2-48.79,20.31a11.69,11.69,0,0,1-2.66,1.51,21,21,0,0,1-3.87.74c-17.92,3-30.31,33.35-34.76,48.43-6,20.41-6.12,42.3-1.72,63,3.22,15.21,13.84,36.37,33,25.36,7.56-4.35,8.42-17.9,18.77-17.73a1.66,1.66,0,0,1,.93.21,1.76,1.76,0,0,1,.6.84c3.69,8.11,3.86,17.36,4.59,26.07.35,4.24.56,7.35,3.19,10.82s7.05,3.58,8.53,7.86c.69,2,.85,4.07,1.48,6.05a13.6,13.6,0,0,0,10.89,9.16c2,.27,4,.1,6,.27,1.74.16,3.45.59,5.19.69,8.45.49,17.23-8.7,24.29-12.58,7.33-4,8.75-12.8,4.08-19.46-2.69-3.85-6.49-6.79-9.32-10.54-1.07-1.41-2-3.15-1.63-4.87a6.92,6.92,0,0,1,1.71-2.77l12.13-14.09c7.37-8.54,8.86-26.25-6.54-26.56,3.84-6.4,8.19-12.92,11.14-19.78,3.28-6.58,5.55-14.11,5.55-21.5a6.35,6.35,0,0,1,.71-3.2,5.58,5.58,0,0,1,1.91-1.59c3.7-2.17,13.91-8.12,17.23-3.49,4.32,6,7.75,11.1,16.48,12.25a10.21,10.21,0,0,1,4,1.26c7.9,4.81,5.68,15.53,12.93,21.15,3.83,3,8.69,3.54,13.38,3.14,6.11-.51,7.36-3,11.64,1.69,6.4,7.06,10,16.05,14,24.57,3.35,7.17,6.35,16.89,15.37,18.79,5.51,1.16,11-1.3,14.84-5.46C638.56,942.75,641.33,925.77,639.38,912.6Z"/><path class="cls-5" d="M482.11,873c-3.38,0-6.71.18-9.68.17-1.54,0-3.3-.16-4.23-1.39a5.27,5.27,0,0,1-.76-2.83q-1.35-19.58-1.37-39.22c0-6.72-.18-14.43-5.71-19.11a16.52,16.52,0,0,0-20.53-.55c-1.49,1.15-2.76,2.58-4.25,3.73a37.63,37.63,0,0,1-7.25,3.94c-39.66,18.62-60.24,62.9-57.59,105.42.57,9.24,5.76,17.5,15.51,18.59a24.59,24.59,0,0,0,13.1-2.54c3.91-1.86,8.54-8,12.52-8.55,2.9-.36,6.79,1.15,9.23,2.54a3.94,3.94,0,0,1,1.47,1.24,4.67,4.67,0,0,1,.48,2.26c.49,10,4.38,19.35,7.3,28.81,2.55,8.23,5.15,15.91,12.33,21.36a13.39,13.39,0,0,1,3.56,3.26c1.12,1.79,1.13,4,1.43,6.11.92,6.39,5.32,12.31,11.41,14.45s13.59,0,17.17-5.35c2.62-3.93,3-8.9,3.29-13.62q.79-12.93,1.6-25.86c.49-8-1.65-15.18-2.12-23.12a77,77,0,0,1,.91-14.13,8.58,8.58,0,0,1,1.07-3.71c1.9-2.84,6.8-4.41,9.46-6.77a56.54,56.54,0,0,0,10.16-11.51c5.07-7.79,8.61-18.5,2.2-26.62C498,873.9,489.88,873,482.11,873Z"/><path class="cls-5" d="M631.67,900.28c-6.82-24.16-17.8-51-42.62-59.84a19,19,0,0,1-4.7-2.07A23.34,23.34,0,0,1,581,835c-3-3.26-7.1-5.81-11.47-5.67-1.45,0-2.87.39-4.32.44a22.42,22.42,0,0,1-4.08-.36,163,163,0,0,0-24.21-2.15c-17.36-2.48-33.5,1.6-41.33,19.35a17.16,17.16,0,0,0,3,18.09,14.18,14.18,0,0,0,9.34,4.94c2.95.24,5.87-.58,8.8-1,10.41-1.6,23,.27,32.25,5.53,8.8,5,11,16,18.81,22a17.36,17.36,0,0,0,7,3.16c2.55.51,6.08-.94,8.21-.38,4.19,1.1,6,9.65,7.35,13.17,1.22,3.28,2.11,7.09,4.17,9.94,2.36,3.24,5.41,5.38,6.91,9.33,3,8,3.25,15.12,12.1,18.82,6.78,2.82,14.09.63,17.5-6.21,5.92-11.84,5.69-24.77,2.4-37.37C632.85,904.55,632.27,902.42,631.67,900.28Z"/><path class="cls-6" d="M476.15,878c-2.93,0-5.8.16-8.36.15-1.33,0-2.85-.14-3.65-1.2a4.48,4.48,0,0,1-.66-2.45q-1.17-16.9-1.19-33.86c0-5.81-.15-12.47-4.93-16.5a14.25,14.25,0,0,0-17.73-.48c-1.29,1-2.38,2.22-3.67,3.22a32.07,32.07,0,0,1-6.26,3.4c-34.25,16.08-52,54.32-49.73,91,.5,8,5,15.11,13.4,16.05a21.22,21.22,0,0,0,11.31-2.19c3.37-1.61,7.37-6.95,10.81-7.38,2.5-.32,5.86,1,8,2.18a3.34,3.34,0,0,1,1.27,1.08,4,4,0,0,1,.42,2c.42,8.64,3.78,16.71,6.3,24.88,2.2,7.1,4.45,13.74,10.65,18.44a11.83,11.83,0,0,1,3.07,2.82c1,1.54,1,3.47,1.23,5.28a15.7,15.7,0,0,0,9.86,12.48c5.26,1.84,11.73,0,14.82-4.63,2.27-3.4,2.59-7.69,2.84-11.76l1.38-22.33c.43-6.89-1.42-13.11-1.82-20a66.64,66.64,0,0,1,.78-12.21,7.34,7.34,0,0,1,.93-3.2c1.63-2.46,5.87-3.81,8.17-5.84a49.46,49.46,0,0,0,8.77-10c4.38-6.72,7.44-16,1.9-23C489.84,878.72,482.86,878,476.15,878Z"/><path class="cls-6" d="M621,892.81c-5.73-20.28-15-42.8-35.8-50.26a15.61,15.61,0,0,1-3.94-1.74,18.93,18.93,0,0,1-2.83-2.83c-2.53-2.74-6-4.88-9.64-4.76-1.21,0-2.41.32-3.63.37a18.85,18.85,0,0,1-3.43-.3,136.27,136.27,0,0,0-20.33-1.81c-14.58-2.08-28.14,1.34-34.72,16.25a14.41,14.41,0,0,0,2.48,15.19,12,12,0,0,0,7.85,4.16c2.48.2,4.94-.49,7.4-.87,8.74-1.35,19.3.22,27.08,4.64,7.4,4.2,9.2,13.49,15.8,18.52a14.56,14.56,0,0,0,5.91,2.65c2.14.44,5.11-.79,6.9-.31,3.52.92,5.08,8.11,6.17,11.06,1,2.76,1.77,6,3.51,8.35,2,2.72,4.54,4.52,5.8,7.84,2.54,6.74,2.72,12.7,10.16,15.8,5.69,2.38,11.84.53,14.7-5.21,5-9.95,4.78-20.8,2-31.39Q621.75,895.52,621,892.81Z"/><path class="cls-7" d="M604.11,995c-14.63,16.16-31.44,30.93-53.73,32.41,13-12.12,22.37-25.85,25.72-43.71.26-1.34-1.79-1.91-2-.57-3.37,17.93-12.82,31.54-26.06,43.61a2.5,2.5,0,0,0-1.22-1,3.89,3.89,0,0,0-3.3.57c.71-23.89.94-47.61-3.7-71.17-.27-1.34-2.31-.77-2,.56,4.67,23.68,4.33,47.52,3.61,71.52h0a98.67,98.67,0,0,1-17.56-8.49c-1.16-.71-2.23,1.12-1.07,1.83a100.39,100.39,0,0,0,16.69,8.18,5.37,5.37,0,0,0-1.67,2.24c-26.4,7.14-52.26,1.11-78.08-5.75a1.06,1.06,0,0,0-.57,2c26.24,7,52.61,13,79.39,5.7,1.32,1,3.75.71,5.21.25a64.82,64.82,0,0,1-15.13,25.4c-.94,1,.55,2.49,1.5,1.5a67.27,67.27,0,0,0,16.34-28.42h0a6.14,6.14,0,0,0,1.6-2.14c23.95-.52,42.12-16,57.63-33.1C606.52,995.45,605,993.94,604.11,995Zm-59,35.07a5.49,5.49,0,0,1-2.79,1.4,5,5,0,0,1-1.45.06,4.91,4.91,0,0,1-.76-.17.59.59,0,0,0-.06-.14l.19-.08a4.34,4.34,0,0,1,1.4-1.5l.08,0a.9.9,0,0,0,1.21-.6,1,1,0,0,0,.44-.48.92.92,0,0,0,.7-.13,4,4,0,0,1,.38-.21,1.06,1.06,0,0,0,1,1.4h.11Z"/></g></g></g></g></svg>