<svg xmlns="http://www.w3.org/2000/svg" xmlns:xlink="http://www.w3.org/1999/xlink" viewBox="0 0 1007.93 1007.93"><defs><style>.cls-1{fill:url(#무제_그라디언트_99);}.cls-2{fill:url(#무제_그라디언트_96);}.cls-3{fill:url(#무제_그라디언트_10);}.cls-4,.cls-5,.cls-6{fill:#d3c998;}.cls-4{opacity:0.15;}.cls-5{opacity:0.35;}.cls-6{opacity:0.39;}.cls-7{fill:#fff;}</style><radialGradient id="무제_그라디언트_99" cx="503.96" cy="503.96" r="503.96" gradientUnits="userSpaceOnUse"><stop offset="0" stop-color="#fff8c5" stop-opacity="0.3"/><stop offset="0.09" stop-color="#fff8c5" stop-opacity="0.25"/><stop offset="0.32" stop-color="#fff8c5" stop-opacity="0.14"/><stop offset="0.54" stop-color="#fff8c5" stop-opacity="0.06"/><stop offset="0.77" stop-color="#fff8c5" stop-opacity="0.02"/><stop offset="1" stop-color="#fff8c5" stop-opacity="0"/></radialGradient><radialGradient id="무제_그라디언트_96" cx="503.96" cy="503.96" r="56.72" gradientUnits="userSpaceOnUse"><stop offset="0.53" stop-color="#fff8c5"/><stop offset="0.66" stop-color="#fff8c5" stop-opacity="0.99"/><stop offset="0.73" stop-color="#fff8c5" stop-opacity="0.96"/><stop offset="0.78" stop-color="#fff8c5" stop-opacity="0.91"/><stop offset="0.82" stop-color="#fff8c5" stop-opacity="0.84"/><stop offset="0.86" stop-color="#fff8c5" stop-opacity="0.74"/><stop offset="0.89" stop-color="#fff8c5" stop-opacity="0.63"/><stop offset="0.92" stop-color="#fff8c5" stop-opacity="0.49"/><stop offset="0.95" stop-color="#fff8c5" stop-opacity="0.33"/><stop offset="0.98" stop-color="#fff8c5" stop-opacity="0.16"/><stop offset="1" stop-color="#fff8c5" stop-opacity="0"/></radialGradient><radialGradient id="무제_그라디언트_10" cx="513.28" cy="535.6" r="60.62" gradientUnits="userSpaceOnUse"><stop offset="0" stop-color="#fffbe1"/><stop offset="1" stop-color="#fff8c5"/></radialGradient></defs><title>moon</title><g id="레이어_2" data-name="레이어 2"><g id="레이어_13" data-name="레이어 13"><g id="레이어_8" data-name="레이어 8"><circle class="cls-1" cx="503.96" cy="503.96" r="503.96"/><circle class="cls-2" cx="503.96" cy="503.96" r="62.36"/><circle class="cls-3" cx="503.96" cy="503.96" r="49.1"/><path class="cls-4" d="M551.81,499.84a61.94,61.94,0,0,0-2.71-11.29,37.31,37.31,0,0,0-2.26-5.27c-1.42-2.73-3.09-4.87-6.13-6.18a17.54,17.54,0,0,1-4-2.25c-3.69-2.89-6.18-5.82-11.1-6.62-3.12-.51-6.3-.12-9.43-.57s-6.36-3.1-9.39-1.81c-2.39,1-2.93,3.89-4.4,5.76-2.08,2.66-3.95,5-5.16,8.25a6.32,6.32,0,0,1-1.4,2.57,1.85,1.85,0,0,1-2.62,0,2.34,2.34,0,0,1-.38-1.21c-.16-1.51-.07-3.15-.95-4.38-.29-.42-.71-.83-.68-1.34a1.8,1.8,0,0,1,.41-.87c2.4-3.51,2.6-8.39-1.77-10.28-7.24-3.13-12.16,3.61-17.24,7.18a4,4,0,0,1-.94.53,7.05,7.05,0,0,1-1.37.26c-6.33,1.05-10.7,11.78-12.28,17.11a45.66,45.66,0,0,0-.61,22.28c1.14,5.37,4.9,12.85,11.66,9,2.67-1.54,3-6.33,6.63-6.27a.53.53,0,0,1,.33.08.56.56,0,0,1,.21.29c1.31,2.87,1.37,6.14,1.62,9.22a6.45,6.45,0,0,0,1.13,3.82c.89,1.17,2.49,1.26,3,2.77.24.7.29,1.44.52,2.14a4.8,4.8,0,0,0,3.85,3.24c.69.1,1.41,0,2.11.1s1.22.2,1.83.24c3,.17,6.09-3.08,8.58-4.45a4.6,4.6,0,0,0,1.45-6.87c-1-1.36-2.3-2.4-3.3-3.73a2.21,2.21,0,0,1-.57-1.72,2.5,2.5,0,0,1,.6-1l4.29-5c2.6-3,3.13-9.28-2.31-9.39a60.7,60.7,0,0,0,3.93-7,17.36,17.36,0,0,0,2-7.59,2.26,2.26,0,0,1,.25-1.13,1.85,1.85,0,0,1,.68-.56c1.31-.77,4.91-2.87,6.09-1.24,1.52,2.13,2.73,3.92,5.82,4.33a3.56,3.56,0,0,1,1.43.44c2.79,1.7,2,5.49,4.57,7.48a6.67,6.67,0,0,0,4.72,1.11c2.16-.18,2.6-1.07,4.11.59,2.27,2.5,3.55,5.67,5,8.68,1.18,2.54,2.25,6,5.43,6.64a5.62,5.62,0,0,0,5.24-1.93C551.52,510.49,552.5,504.49,551.81,499.84Z"/><path class="cls-5" d="M496.24,485.86c-1.19,0-2.37.06-3.42.06a1.38,1.38,0,0,1-1.76-1.49c-.32-4.61-.48-9.24-.49-13.86,0-2.37-.06-5.1-2-6.75a5.86,5.86,0,0,0-7.26-.2c-.52.41-1,.92-1.5,1.32a13.51,13.51,0,0,1-2.56,1.4c-14,6.57-21.28,22.22-20.35,37.24.21,3.27,2,6.19,5.48,6.57a8.64,8.64,0,0,0,4.63-.9c1.38-.66,3-2.84,4.42-3a6.14,6.14,0,0,1,3.26.9,1.41,1.41,0,0,1,.53.44,1.77,1.77,0,0,1,.17.8c.17,3.53,1.54,6.83,2.58,10.17.89,2.91,1.82,5.63,4.35,7.55a4.66,4.66,0,0,1,1.26,1.16,5.22,5.22,0,0,1,.5,2.15,6.42,6.42,0,0,0,4,5.11,5.33,5.33,0,0,0,6.06-1.89,9.55,9.55,0,0,0,1.16-4.82l.57-9.13c.17-2.82-.58-5.36-.75-8.17a26.89,26.89,0,0,1,.32-5,2.93,2.93,0,0,1,.38-1.31c.67-1,2.4-1.56,3.34-2.39a20.13,20.13,0,0,0,3.59-4.07c1.79-2.75,3-6.54.78-9.41C501.85,486.17,499,485.86,496.24,485.86Z"/><path class="cls-5" d="M549.08,495.49c-2.41-8.54-6.29-18-15.05-21.14a6.52,6.52,0,0,1-1.66-.74,7.44,7.44,0,0,1-1.19-1.19,5.54,5.54,0,0,0-4.06-2c-.51,0-1,.14-1.52.15a7.81,7.81,0,0,1-1.45-.12,57.19,57.19,0,0,0-8.55-.76c-6.13-.88-11.84.56-14.6,6.83a6,6,0,0,0,1,6.39,5,5,0,0,0,3.3,1.75,13.08,13.08,0,0,0,3.11-.36,18.57,18.57,0,0,1,11.4,1.95c3.11,1.77,3.87,5.67,6.64,7.79a6.09,6.09,0,0,0,2.49,1.11c.9.19,2.15-.33,2.9-.13,1.48.39,2.14,3.41,2.6,4.65a14.56,14.56,0,0,0,1.47,3.52c.83,1.14,1.91,1.9,2.44,3.29,1.07,2.84,1.15,5.35,4.27,6.65a4.66,4.66,0,0,0,6.19-2.19c2.09-4.19,2-8.75.84-13.21C549.5,497,549.3,496.24,549.08,495.49Z"/><path class="cls-6" d="M494.13,487.6c-1,0-2,.06-2.95,0a1.54,1.54,0,0,1-1.29-.42,1.58,1.58,0,0,1-.23-.86q-.42-6-.42-12c0-2-.05-4.4-1.74-5.83a5.05,5.05,0,0,0-6.27-.17c-.45.35-.84.79-1.29,1.14a11,11,0,0,1-2.21,1.2c-12.11,5.68-18.38,19.19-17.58,32.17.18,2.81,1.76,5.34,4.74,5.67a7.48,7.48,0,0,0,4-.78c1.2-.57,2.61-2.45,3.82-2.6a5.21,5.21,0,0,1,2.82.77,1.27,1.27,0,0,1,.45.38,1.58,1.58,0,0,1,.15.69c.14,3,1.33,5.9,2.22,8.79.78,2.51,1.57,4.85,3.77,6.51a4.13,4.13,0,0,1,1.08,1,4.88,4.88,0,0,1,.44,1.86,5.53,5.53,0,0,0,3.48,4.41,4.6,4.6,0,0,0,5.24-1.63,8.31,8.31,0,0,0,1-4.16q.24-3.95.49-7.89c.15-2.43-.5-4.63-.65-7a24,24,0,0,1,.28-4.31,2.6,2.6,0,0,1,.33-1.13c.57-.87,2.07-1.35,2.88-2.07a17.27,17.27,0,0,0,3.1-3.51c1.55-2.38,2.63-5.65.67-8.12C499,487.87,496.51,487.6,494.13,487.6Z"/><path class="cls-6" d="M545.31,492.85c-2-7.17-5.28-15.12-12.65-17.76a5.76,5.76,0,0,1-1.39-.61,7.27,7.27,0,0,1-1-1,4.64,4.64,0,0,0-3.41-1.69c-.43,0-.85.12-1.28.13a6.18,6.18,0,0,1-1.21-.1,48.25,48.25,0,0,0-7.18-.64c-5.16-.74-10,.47-12.27,5.74a5.08,5.08,0,0,0,.88,5.37,4.25,4.25,0,0,0,2.77,1.47,11.56,11.56,0,0,0,2.61-.31,15.58,15.58,0,0,1,9.57,1.64c2.62,1.48,3.25,4.76,5.59,6.54a5,5,0,0,0,2.08.94c.76.15,1.81-.28,2.44-.11,1.24.33,1.79,2.86,2.18,3.91a12.38,12.38,0,0,0,1.24,2.95c.7,1,1.6,1.59,2.05,2.77.9,2.38,1,4.49,3.59,5.58a3.9,3.9,0,0,0,5.19-1.84c1.76-3.52,1.69-7.35.71-11.09Q545.58,493.81,545.31,492.85Z"/><path class="cls-7" d="M539.35,528.94c-5.17,5.71-11.11,10.93-19,11.45,4.61-4.28,7.91-9.13,9.09-15.44.09-.48-.63-.68-.72-.2-1.19,6.33-4.53,11.14-9.21,15.4a.89.89,0,0,0-.43-.33,1.31,1.31,0,0,0-1.16.2c.25-8.45.33-16.82-1.31-25.15-.1-.47-.82-.27-.73.2,1.65,8.37,1.53,16.79,1.28,25.27h0a34.84,34.84,0,0,1-6.21-3c-.41-.25-.79.39-.38.65a36.22,36.22,0,0,0,5.9,2.89,1.79,1.79,0,0,0-.59.79c-9.33,2.52-18.46.39-27.59-2a.37.37,0,0,0-.2.72c9.27,2.46,18.59,4.6,28,2a2.31,2.31,0,0,0,1.84.09,22.76,22.76,0,0,1-5.34,9c-.34.35.19.88.53.54a23.89,23.89,0,0,0,5.77-10h0a2.17,2.17,0,0,0,.57-.75c8.46-.19,14.88-5.65,20.36-11.7C540.2,529.11,539.67,528.58,539.35,528.94Zm-20.86,12.39a1.92,1.92,0,0,1-1,.5,1.76,1.76,0,0,1-.51,0,1.19,1.19,0,0,1-.27-.07l0,0,.06,0a1.46,1.46,0,0,1,.5-.53h0a.31.31,0,0,0,.42-.21.33.33,0,0,0,.16-.17.34.34,0,0,0,.25,0l.13-.07a.37.37,0,0,0,.34.49h0Z"/></g></g></g></svg>