<svg xmlns="http://www.w3.org/2000/svg" xmlns:xlink="http://www.w3.org/1999/xlink" viewBox="0 0 1950 280"><defs><style>.cls-1{fill:url(#무제_그라디언트_9);}.cls-2{fill:url(#무제_그라디언트_9-2);}.cls-3{fill:url(#무제_그라디언트_9-3);}.cls-4{fill:url(#무제_그라디언트_9-4);}.cls-5{fill:#0b1434;}</style><linearGradient id="무제_그라디언트_9" x1="138" y1="280" x2="138" y2="28" gradientUnits="userSpaceOnUse"><stop offset="0" stop-color="#0c1124"/><stop offset="1" stop-color="#010308"/></linearGradient><linearGradient id="무제_그라디언트_9-2" x1="643" x2="643" y2="90" xlink:href="#무제_그라디언트_9"/><linearGradient id="무제_그라디언트_9-3" x1="1249.5" x2="1249.5" y2="109" xlink:href="#무제_그라디언트_9"/><linearGradient id="무제_그라디언트_9-4" x1="1786.5" x2="1786.5" y2="0" xlink:href="#무제_그라디언트_9"/></defs><title>skills-back</title><g id="레이어_2" data-name="레이어 2"><g id="레이어_4" data-name="레이어 4"><polygon class="cls-1" points="137 28 0 28 0 280 107 280 107 280 276 280 276 75 137 75 137 28"/><polygon class="cls-2" points="705 196 571 196 571 90 442 90 442 280 543 280 543 280 755 280 755 280 844 280 844 146 705 146 705 196"/><polygon class="cls-3" points="1217 109 1069 109 1069 280 1206 280 1206 280 1430 280 1430 210 1217 210 1217 109"/><polygon class="cls-4" points="1950 0 1822 0 1822 185 1745 185 1745 124 1623 124 1623 280 1700 280 1745 280 1849 280 1849 280 1950 280 1950 0"/><rect class="cls-5" x="15" y="44" width="28" height="33"/><rect class="cls-5" x="56" y="44" width="28" height="33"/><rect class="cls-5" x="97" y="44" width="28" height="33"/><rect class="cls-5" x="15" y="90" width="28" height="33"/><rect class="cls-5" x="56" y="90" width="28" height="33"/><rect class="cls-5" x="15" y="136" width="28" height="33"/><rect class="cls-5" x="56" y="136" width="28" height="33"/><rect class="cls-5" x="15" y="182" width="28" height="33"/><rect class="cls-5" x="56" y="182" width="28" height="33"/><rect class="cls-5" x="125" y="90" width="137" height="27"/><rect class="cls-5" x="233" y="136" width="29" height="29"/><rect class="cls-5" x="191" y="136" width="29" height="29"/><rect class="cls-5" x="149" y="136" width="29" height="29"/><rect class="cls-5" x="233" y="176" width="29" height="29"/><rect class="cls-5" x="191" y="176" width="29" height="29"/><rect class="cls-5" x="149" y="176" width="29" height="29"/><rect class="cls-5" x="452" y="103" width="26" height="33"/><rect class="cls-5" x="493" y="103" width="26" height="33"/><rect class="cls-5" x="534" y="103" width="26" height="33"/><rect class="cls-5" x="452" y="151" width="26" height="33"/><rect class="cls-5" x="493" y="151" width="26" height="33"/><rect class="cls-5" x="534" y="151" width="26" height="33"/><rect class="cls-5" x="452" y="199" width="26" height="33"/><rect class="cls-5" x="493" y="199" width="26" height="33"/><rect class="cls-5" x="452" y="247" width="26" height="33"/><rect class="cls-5" x="493" y="247" width="26" height="33"/><rect class="cls-5" x="563" y="208" width="24" height="24"/><rect class="cls-5" x="600" y="208" width="24" height="24"/><rect class="cls-5" x="637" y="208" width="24" height="24"/><rect class="cls-5" x="674" y="208" width="24" height="24"/><rect class="cls-5" x="711" y="208" width="24" height="24"/><rect class="cls-5" x="563" y="247" width="24" height="24"/><rect class="cls-5" x="600" y="247" width="24" height="24"/><rect class="cls-5" x="637" y="247" width="24" height="24"/><rect class="cls-5" x="674" y="247" width="24" height="24"/><rect class="cls-5" x="711" y="247" width="24" height="24"/><rect class="cls-5" x="719" y="159" width="30" height="25"/><rect class="cls-5" x="760" y="159" width="30" height="25"/><rect class="cls-5" x="801" y="159" width="30" height="25"/><rect class="cls-5" x="760" y="196" width="30" height="25"/><rect class="cls-5" x="801" y="196" width="30" height="25"/><rect class="cls-5" x="760" y="233" width="30" height="25"/><rect class="cls-5" x="801" y="233" width="30" height="25"/><rect class="cls-5" x="1083" y="120" width="28" height="34"/><rect class="cls-5" x="1129" y="120" width="28" height="34"/><rect class="cls-5" x="1175" y="120" width="28" height="34"/><rect class="cls-5" x="1083" y="173" width="28" height="34"/><rect class="cls-5" x="1129" y="173" width="28" height="34"/><rect class="cls-5" x="1175" y="173" width="28" height="34"/><rect class="cls-5" x="1083" y="226" width="28" height="34"/><rect class="cls-5" x="1129" y="226" width="28" height="34"/><rect class="cls-5" x="1175" y="226" width="28" height="34"/><rect class="cls-5" x="1224" y="226" width="37" height="37"/><rect class="cls-5" x="1275" y="226" width="37" height="37"/><rect class="cls-5" x="1326" y="226" width="37" height="37"/><rect class="cls-5" x="1377" y="226" width="37" height="37"/><rect class="cls-5" x="1639" y="135" width="28" height="28"/><rect class="cls-5" x="1681" y="135" width="28" height="28"/><rect class="cls-5" x="1633" y="179" width="25" height="28"/><rect class="cls-5" x="1671" y="179" width="25" height="28"/><rect class="cls-5" x="1633" y="223" width="25" height="28"/><rect class="cls-5" x="1671" y="223" width="25" height="28"/><rect class="cls-5" x="1719" y="198" width="27" height="27"/><rect class="cls-5" x="1759" y="198" width="27" height="27"/><rect class="cls-5" x="1799" y="198" width="27" height="27"/><rect class="cls-5" x="1719" y="240" width="27" height="27"/><rect class="cls-5" x="1759" y="240" width="27" height="27"/><rect class="cls-5" x="1799" y="240" width="27" height="27"/><rect class="cls-5" x="1838" y="13" width="97" height="23"/><rect class="cls-5" x="1838" y="51" width="26" height="26"/><rect class="cls-5" x="1874" y="51" width="26" height="26"/><rect class="cls-5" x="1910" y="51" width="26" height="26"/><rect class="cls-5" x="1838" y="89" width="26" height="26"/><rect class="cls-5" x="1874" y="89" width="26" height="26"/><rect class="cls-5" x="1910" y="89" width="26" height="26"/><rect class="cls-5" x="1838" y="127" width="26" height="26"/><rect class="cls-5" x="1874" y="127" width="26" height="26"/><rect class="cls-5" x="1910" y="127" width="26" height="26"/><rect class="cls-5" x="1838" y="165" width="26" height="26"/><rect class="cls-5" x="1874" y="165" width="26" height="26"/><rect class="cls-5" x="1910" y="165" width="26" height="26"/><rect class="cls-5" x="1874" y="203" width="26" height="26"/><rect class="cls-5" x="1862" y="237" width="48" height="43"/><rect class="cls-5" x="178" y="229" width="55" height="51"/></g></g></svg>