<svg xmlns="http://www.w3.org/2000/svg" viewBox="0 0 1788.15 582.03"><defs><style>.cls-1,.cls-3{fill:#fff8c5;}.cls-1{stroke:#fff8c5;stroke-miterlimit:10;stroke-width:0.25px;opacity:0.19;}.cls-2{opacity:0.53;}</style></defs><title>stars</title><g id="레이어_2" data-name="레이어 2"><g id="레이어_13" data-name="레이어 13"><g id="레이어_9" data-name="레이어 9"><path class="cls-1" d="M361.56,409.31a.75.75,0,0,0,0,1.5A.75.75,0,0,0,361.56,409.31Z"/><path class="cls-1" d="M561.17,279.57a.75.75,0,0,0,0,1.5A.75.75,0,0,0,561.17,279.57Z"/><path class="cls-1" d="M648.14,422.14a.75.75,0,0,0,0,1.5A.75.75,0,0,0,648.14,422.14Z"/><path class="cls-1" d="M1007.42,387.93a.75.75,0,0,0,0,1.5A.75.75,0,0,0,1007.42,387.93Z"/><path class="cls-1" d="M876.26,174.07a.75.75,0,0,0,0,1.5A.75.75,0,0,0,876.26,174.07Z"/><path class="cls-1" d="M1121.48.13a.75.75,0,0,0,0,1.5A.75.75,0,0,0,1121.48.13Z"/><path class="cls-1" d="M1016,276.72a.75.75,0,0,0,0,1.5A.75.75,0,0,0,1016,276.72Z"/><path class="cls-1" d="M1372.41,543.33a.75.75,0,0,0,0,1.5A.75.75,0,0,0,1372.41,543.33Z"/><path class="cls-1" d="M1547.78,453.51a.75.75,0,0,0,0,1.5A.75.75,0,0,0,1547.78,453.51Z"/><path class="cls-1" d="M1438,392.2a.75.75,0,0,0,0,1.5A.75.75,0,0,0,1438,392.2Z"/><path class="cls-1" d="M1657.56,430.7a.75.75,0,0,0,0,1.5A.75.75,0,0,0,1657.56,430.7Z"/><path class="cls-1" d="M1775.9,48.6a.75.75,0,0,0,0,1.5A.75.75,0,0,0,1775.9,48.6Z"/><path class="cls-1" d="M1611.94,1.55a.75.75,0,0,0,0,1.5A.75.75,0,0,0,1611.94,1.55Z"/><path class="cls-1" d="M1787.3,308.09a.75.75,0,0,0,0,1.5A.75.75,0,0,0,1787.3,308.09Z"/><path class="cls-1" d="M725.13,98.5a.75.75,0,0,0,0,1.5A.75.75,0,0,0,725.13,98.5Z"/><path class="cls-1" d="M210.43,13a.75.75,0,0,0,0,1.5A.75.75,0,0,0,210.43,13Z"/><path class="cls-1" d="M495.58,580.4a.75.75,0,0,0,0,1.5A.75.75,0,0,0,495.58,580.4Z"/><path class="cls-1" d="M.85,457.79a.75.75,0,0,0,0,1.5A.75.75,0,0,0,.85,457.79Z"/><path class="cls-1" d="M900.49,514.82a.75.75,0,0,0,0,1.5A.75.75,0,0,0,900.49,514.82Z"/><path class="cls-1" d="M1429.44,251.06a.75.75,0,0,0,0,1.5A.75.75,0,0,0,1429.44,251.06Z"/><path class="cls-1" d="M1381,343.73a.75.75,0,0,0,0,1.5A.75.75,0,0,0,1381,343.73Z"/><path class="cls-1" d="M1623.34,282.42a.75.75,0,0,0,0,1.5A.75.75,0,0,0,1623.34,282.42Z"/><g class="cls-2"><path class="cls-3" d="M330.2,286.77a.75.75,0,0,0,0-1.5.75.75,0,0,0,0,1.5Z"/></g><g class="cls-2"><path class="cls-3" d="M633.88,477.82a.75.75,0,0,0,0-1.5.75.75,0,0,0,0,1.5Z"/></g><g class="cls-2"><path class="cls-3" d="M710.87,221.19a.75.75,0,0,0,0-1.5.75.75,0,0,0,0,1.5Z"/></g><g class="cls-2"><path class="cls-3" d="M585.4,70.06a.75.75,0,0,0,0-1.5.75.75,0,0,0,0,1.5Z"/></g><g class="cls-2"><path class="cls-3" d="M1011.7,318.14a.75.75,0,0,0,0-1.5.75.75,0,0,0,0,1.5Z"/></g><g class="cls-2"><path class="cls-3" d="M872,450.73a.75.75,0,0,0,0-1.5.75.75,0,0,0,0,1.5Z"/></g><g class="cls-2"><path class="cls-3" d="M1182.79,144.2a.75.75,0,0,0,0-1.5.75.75,0,0,0,0,1.5Z"/></g><g class="cls-2"><path class="cls-3" d="M977.48,24.44a.75.75,0,0,0,0-1.5.75.75,0,0,0,0,1.5Z"/></g><g class="cls-2"><path class="cls-3" d="M1341.05,393.7a.75.75,0,0,0,0-1.5.75.75,0,0,0,0,1.5Z"/></g><g class="cls-2"><path class="cls-3" d="M1516.41,546.26a.75.75,0,0,0,0-1.5.75.75,0,0,0,0,1.5Z"/></g><g class="cls-2"><path class="cls-3" d="M1666.12,261.11a.75.75,0,0,0,0-1.5.75.75,0,0,0,0,1.5Z"/></g><g class="cls-2"><path class="cls-3" d="M1502.16,184.12a.75.75,0,0,0,0-1.5.75.75,0,0,0,0,1.5Z"/></g><g class="cls-2"><path class="cls-3" d="M1584.85,60.08a.75.75,0,0,0,0-1.5.75.75,0,0,0,0,1.5Z"/></g><g class="cls-2"><path class="cls-3" d="M164.81,476.4a.75.75,0,0,0,0-1.5.75.75,0,0,0,0,1.5Z"/></g><g class="cls-2"><path class="cls-3" d="M59.3,40.12a.75.75,0,0,0,0-1.5.75.75,0,0,0,0,1.5Z"/></g><path class="cls-3" d="M979.27,122.1a.75.75,0,0,0,0-1.5.75.75,0,0,0,0,1.5Z"/><path class="cls-3" d="M1108.65,354.14a.75.75,0,0,0,0-1.5.75.75,0,0,0,0,1.5Z"/><path class="cls-3" d="M922.59,355.21a.75.75,0,0,0,0-1.5.75.75,0,0,0,0,1.5Z"/><path class="cls-3" d="M1408.06,478.18a.75.75,0,0,0,0-1.5.75.75,0,0,0,0,1.5Z"/><path class="cls-3" d="M1517.13,299.61a.75.75,0,0,0,0-1.5.75.75,0,0,0,0,1.5Z"/><path class="cls-3" d="M1387.74,52.6a.75.75,0,0,0,0-1.5.75.75,0,0,0,0,1.5Z"/><path class="cls-3" d="M656.33,188.4a.75.75,0,0,0,0-1.5.75.75,0,0,0,0,1.5Z"/></g></g></g></svg>