<svg xmlns="http://www.w3.org/2000/svg" xmlns:xlink="http://www.w3.org/1999/xlink" viewBox="0 0 1954.37 294.59"><defs><style>.cls-1{fill:url(#무제_그라디언트_7);}.cls-2{fill:#5667a4;opacity:0.33;}.cls-3{fill:#fff8c5;opacity:0.25;}</style><linearGradient id="무제_그라디언트_7" x1="977.18" y1="294.59" x2="977.18" gradientUnits="userSpaceOnUse"><stop offset="0" stop-color="#1e2d5f" stop-opacity="0"/><stop offset="0.15" stop-color="#243467" stop-opacity="0.11"/><stop offset="0.46" stop-color="#35457b" stop-opacity="0.41"/><stop offset="0.9" stop-color="#50609c" stop-opacity="0.89"/><stop offset="1" stop-color="#5667a4"/></linearGradient></defs><title>water</title><g id="레이어_2" data-name="레이어 2"><g id="레이어_20" data-name="레이어 20"><g id="레이어_17" data-name="레이어 17"><rect class="cls-1" width="1954.37" height="294.59"/><rect class="cls-2" x="1328.57" width="469.32" height="135.45" rx="67.72"/><rect class="cls-2" x="1397.25" y="40.63" width="469.32" height="135.45" rx="67.72"/><rect class="cls-2" x="1209.87" width="469.32" height="135.45" rx="67.72"/><rect class="cls-2" x="1453.32" width="469.32" height="135.45" rx="67.72"/><rect class="cls-2" x="1281.16" y="79.57" width="469.32" height="135.45" rx="67.72"/><rect class="cls-2" x="818.14" y="14.39" width="369.59" height="106.66" rx="53.33"/><rect class="cls-2" x="1050.85" y="141.37" width="357.86" height="103.28" rx="51.64"/><rect class="cls-2" x="1528.53" y="138.83" width="375.46" height="108.36" rx="54.18"/><rect class="cls-2" x="379.77" y="2.85" width="261.82" height="75.56" rx="37.78"/><rect class="cls-2" x="582.42" y="103.25" width="311.01" height="89.76" rx="44.88"/><rect class="cls-3" x="1414.51" width="362.66" height="19.47" rx="9.74"/><rect class="cls-3" x="1481.49" width="228.71" height="19.47" rx="9.74"/><rect class="cls-3" x="1482.13" y="61.37" width="228.71" height="19.47" rx="9.74"/><rect class="cls-3" x="1685.19" y="108.36" width="228.71" height="19.47" rx="9.74"/><rect class="cls-3" x="1159.92" y="61.37" width="228.71" height="19.47" rx="9.74"/><rect class="cls-3" x="1523.72" width="144.24" height="19.47" rx="9.74"/><rect class="cls-3" x="1783.78" y="30.9" width="144.24" height="19.47" rx="9.74"/><rect class="cls-3" x="1209.04" width="144.24" height="19.47" rx="9.74"/><rect class="cls-3" x="1615.86" y="195.55" width="144.24" height="19.47" rx="9.74"/><rect class="cls-3" x="1443.7" y="156.61" width="144.24" height="19.47" rx="9.74"/><rect class="cls-3" x="970.47" y="61.37" width="144.24" height="19.47" rx="9.74"/><rect class="cls-3" x="758.62" width="144.24" height="19.47" rx="9.74"/></g></g></g></svg>